<?xml version="1.0" encoding="UTF-8"?>
<svg version="1.1" xmlns="http://www.w3.org/2000/svg" width="800" height="800">
<path d="M0 0 C5.48674583 0.00893812 10.97347042 0.00037115 16.46021616 -0.00586212 C27.1762516 -0.01529621 37.89221916 -0.00879812 48.60824951 0.00340082 C61.11162403 0.01709838 73.61498282 0.0153762 86.11836294 0.01326749 C109.11213477 0.00998965 132.10587703 0.02284547 155.09963744 0.04311253 C176.04234402 0.06148507 196.98501643 0.06729195 217.9277302 0.06184113 C219.27312734 0.06149469 220.61852449 0.0611486 221.96392163 0.06080284 C222.62909598 0.06063184 223.29427034 0.06046085 223.97960149 0.06028467 C227.32877471 0.05943098 230.67794795 0.05860721 234.02712119 0.05781567 C235.01847202 0.05758005 235.01847202 0.05758005 236.02985014 0.05733967 C253.58862443 0.05334069 271.14739532 0.05888255 288.70616764 0.06732696 C291.22566811 0.06853414 293.74516859 0.06974012 296.26466906 0.07094491 C297.50401224 0.07154844 298.74335542 0.07215198 300.02025446 0.07277381 C308.71800877 0.07663913 317.41575693 0.07626476 326.11351168 0.07435906 C336.72314413 0.07222855 347.33274389 0.07752584 357.94236716 0.09197261 C363.34653611 0.09917458 368.75065766 0.10332981 374.15483057 0.09872925 C379.11599302 0.09460879 384.07705821 0.09994129 389.03820602 0.11235533 C390.81846733 0.11524771 392.59873802 0.11490352 394.37899675 0.11071225 C411.47270846 0.07416897 428.51476464 1.23956593 445.30883372 4.56501496 C446.38624827 4.77352082 447.46366282 4.98202668 448.5737263 5.1968509 C457.63905671 7.04634644 466.25989077 9.76990911 474.94555247 12.92438996 C478.70990238 14.26497739 482.33821368 14.87747428 486.30883372 15.37751496 C489.74633372 16.94001496 489.74633372 16.94001496 492.30883372 18.37751496 C492.30883372 19.03751496 492.30883372 19.69751496 492.30883372 20.37751496 C493.23695872 20.48063996 494.16508372 20.58376496 495.12133372 20.69001496 C498.49989254 21.41872372 499.09034505 21.9573455 501.30883372 24.37751496 C502.26789622 24.59407746 502.26789622 24.59407746 503.24633372 24.81501496 C506.08414885 25.58896454 507.32043113 27.26082833 509.30883372 29.37751496 C512.12288124 31.42330824 512.12288124 31.42330824 514.87133372 32.31501496 C517.30883372 33.37751496 517.30883372 33.37751496 519.30883372 36.37751496 C519.98945872 36.70751496 520.67008372 37.03751496 521.37133372 37.37751496 C523.30883372 38.37751496 523.30883372 38.37751496 524.30883372 41.37751496 C525.23695872 41.56313996 525.23695872 41.56313996 526.18383372 41.75251496 C528.30883372 42.37751496 528.30883372 42.37751496 529.51195872 44.47907746 C531.90363238 48.33695106 534.9435722 51.22482808 538.18383372 54.37751496 C538.79613841 54.98079621 539.40844309 55.58407746 540.03930247 56.20563996 C541.23693994 57.3853257 542.4370609 58.56249652 543.63988841 59.73688996 C545.1542717 61.2255757 546.64351011 62.73526957 548.12914622 64.25251496 C550.12189265 66.410774 550.12189265 66.410774 552.30883372 67.37751496 C552.66316573 68.70542223 552.99355249 70.03979801 553.30883372 71.37751496 C554.26219319 73.18689216 554.26219319 73.18689216 555.46117747 74.96735871 C555.90308421 75.65829621 556.34499094 76.34923371 556.8002888 77.06110871 C557.27748362 77.80489777 557.75467844 78.54868683 558.24633372 79.31501496 C579.13208144 112.78158822 587.65904873 149.6151852 587.56953013 188.80637848 C587.57255785 190.71031777 587.57645041 192.61425585 587.5811227 194.51819181 C587.59133172 199.70292716 587.58923913 204.88759282 587.5849421 210.07233369 C587.58246185 215.6826233 587.59150515 221.29289669 587.59897959 226.90318024 C587.61169321 237.87683669 587.61352441 248.85046863 587.61117933 259.82413121 C587.60939207 268.75039998 587.61115454 277.67666135 587.61540377 286.60292923 C587.61599896 287.87620217 587.61659415 289.14947511 587.61720737 290.46133208 C587.6184192 293.04850818 587.61963334 295.63568428 587.62084975 298.22286038 C587.62863021 315.57991767 587.63256092 332.93697007 587.62853301 350.2940284 C587.62837663 350.97170755 587.62822025 351.64938669 587.62805914 352.34760157 C587.62725346 355.78170015 587.62640768 359.21579872 587.62554584 362.64989729 C587.62537475 363.3318181 587.62520366 364.01373891 587.62502739 364.71632399 C587.62468073 366.09533152 587.6243322 367.47433904 587.6239818 368.85334657 C587.61862768 390.29843069 587.62655004 411.74347367 587.64501536 433.18855011 C587.66577811 457.32959064 587.67641877 481.47059791 587.67243987 505.61164999 C587.6705324 518.37605366 587.67297087 531.14041986 587.68715441 543.90481675 C587.69910934 554.7729481 587.70042728 565.64101893 587.68836424 576.50915118 C587.682504 582.04518646 587.68129638 587.58111126 587.69336665 593.11713898 C587.78089633 636.17295414 587.78089633 636.17295414 584.30883372 654.37751496 C583.95341738 656.30655136 583.95341738 656.30655136 583.59082091 658.27455819 C583.01528565 661.23164826 582.35178671 664.14269218 581.62133372 667.06501496 C581.23896555 668.61406525 581.23896555 668.61406525 580.84887278 670.19440949 C574.99460188 692.90856093 564.40267335 713.71206012 550.30883372 732.37751496 C549.39283519 733.60756079 548.48270413 734.84199686 547.57836497 736.08063996 C547.16820139 736.63912629 546.75803782 737.19761261 546.33544505 737.77302277 C545.12517188 739.52028615 545.12517188 739.52028615 544.30883372 742.37751496 C542.97909735 743.05132756 541.64492941 743.71640186 540.30883372 744.37751496 C538.55116154 745.94901625 536.84605191 747.58037308 535.18383372 749.25251496 C534.31500559 750.11618683 533.44617747 750.97985871 532.55102122 751.86970246 C530.59978791 754.05209233 529.57166968 755.79994567 528.30883372 758.37751496 C526.65066588 759.06504797 524.98424036 759.73312779 523.30883372 760.37751496 C522.97883372 761.36751496 522.64883372 762.35751496 522.30883372 763.37751496 C521.31883372 763.70751496 520.32883372 764.03751496 519.30883372 764.37751496 C518.60113841 765.10970246 517.89344309 765.84188996 517.16430247 766.59626496 C513.63785742 770.03105138 509.8340619 772.36944978 505.62133372 774.87751496 C504.82058421 775.3587381 504.01983469 775.83996125 503.19482005 776.33576691 C487.50113786 785.69091255 487.50113786 785.69091255 481.30883372 785.37751496 C481.30883372 786.03751496 481.30883372 786.69751496 481.30883372 787.37751496 C478.66883372 787.70751496 476.02883372 788.03751496 473.30883372 788.37751496 C473.30883372 789.03751496 473.30883372 789.69751496 473.30883372 790.37751496 C472.53539622 790.49868683 471.76195872 790.61985871 470.96508372 790.74470246 C464.99001312 791.70603807 459.15290793 792.80411036 453.30883372 794.37751496 C453.30883372 795.03751496 453.30883372 795.69751496 453.30883372 796.37751496 C452.40548289 796.35249909 452.40548289 796.35249909 451.48388255 796.32697785 C445.175546 796.22899018 439.21653106 796.81175732 432.99633372 797.81501496 C419.02518725 800.03552417 405.23694318 800.52606756 391.12267649 800.51795685 C389.30483767 800.52054549 387.48699941 800.52356003 385.66916192 800.52696025 C380.7036212 800.53497539 375.73809498 800.53681675 370.77254856 800.53755772 C365.40475183 800.53941798 360.03696245 800.54697027 354.66917002 800.55369294 C342.94316105 800.56723917 331.21715551 800.57329559 319.49114001 800.5777036 C312.15676517 800.58047311 304.82239163 800.58471181 297.48801768 800.58920777 C277.14654463 800.60139711 256.80507261 800.6116961 236.46359599 800.61508286 C235.16319608 800.61530243 233.86279617 800.61552199 232.5229902 800.61574821 C230.56793769 800.61607563 230.56793769 800.61607563 228.57338917 800.61640966 C225.93263241 800.61685311 223.29187564 800.61729968 220.65111887 800.61774933 C218.68629314 800.61808148 218.68629314 800.61808148 216.68177396 800.61842033 C195.48873585 800.62236271 174.29573225 800.63980114 153.10270745 800.66310886 C131.29856522 800.68689326 109.49444025 800.69928798 87.69028485 800.70045078 C75.46665436 800.70136373 63.2430688 800.7070193 51.01945078 800.72527039 C40.60411223 800.74076759 30.18883249 800.74573578 19.77348459 800.73753229 C14.47165962 800.73365912 9.16995272 800.73438943 3.86814272 800.74858963 C-23.99996338 800.81882317 -51.34443104 800.43823735 -78.65210378 794.14704621 C-82.40882543 793.33693053 -85.85556963 793.2307705 -89.69116628 793.37751496 C-89.69116628 792.71751496 -89.69116628 792.05751496 -89.69116628 791.37751496 C-97.29202914 788.57654562 -97.29202914 788.57654562 -105.19116628 787.00251496 C-110.8494871 785.99210053 -115.66033321 783.07879971 -120.69116628 780.37751496 C-120.69116628 779.71751496 -120.69116628 779.05751496 -120.69116628 778.37751496 C-122.67116628 778.04751496 -124.65116628 777.71751496 -126.69116628 777.37751496 C-127.18616628 775.89251496 -127.18616628 775.89251496 -127.69116628 774.37751496 C-128.41819753 774.2731009 -129.14522878 774.16868683 -129.89429128 774.06110871 C-132.94581279 773.31527594 -134.86127615 772.21044291 -137.44116628 770.44001496 C-138.21976003 769.91536652 -138.99835378 769.39071808 -139.80054128 768.85017121 C-141.69116628 767.37751496 -141.69116628 767.37751496 -142.69116628 765.37751496 C-143.68116628 765.04751496 -144.67116628 764.71751496 -145.69116628 764.37751496 C-146.18616628 762.89251496 -146.18616628 762.89251496 -146.69116628 761.37751496 C-147.33054128 761.23313996 -147.96991628 761.08876496 -148.62866628 760.94001496 C-149.30929128 760.75438996 -149.98991628 760.56876496 -150.69116628 760.37751496 C-151.00054128 759.73813996 -151.30991628 759.09876496 -151.62866628 758.44001496 C-153.08392788 755.61509539 -154.7951063 755.50768471 -157.69116628 754.37751496 C-159.31616628 752.44001496 -159.31616628 752.44001496 -160.69116628 750.37751496 C-162.31838121 748.60880308 -163.81820912 747.29157422 -165.81616628 745.94001496 C-167.69116628 744.37751496 -167.69116628 744.37751496 -168.03101003 742.60798371 C-168.97852155 739.40662822 -170.90893174 737.60696883 -173.12866628 735.12751496 C-196.76832016 707.7318683 -207.17443971 672.58545351 -211.69116628 637.37751496 C-211.77473719 636.76576442 -211.8583081 636.15401388 -211.94441146 635.52372545 C-212.98992956 626.77288306 -212.83329751 617.99186614 -212.82487905 609.19457734 C-212.82674898 607.3406279 -212.82905041 605.48667885 -212.83174437 603.63273042 C-212.83784664 598.55375251 -212.83773062 593.4747911 -212.83655 588.39581037 C-212.83634558 582.91154974 -212.84186874 577.42729437 -212.84660757 571.9430362 C-212.85490687 561.20237862 -212.85766211 550.46172654 -212.85821994 539.72106602 C-212.8586956 530.98483203 -212.86075283 522.24859984 -212.86392057 513.51236641 C-212.87129407 492.75323194 -212.87744556 471.99409855 -212.87692201 451.23496258 C-212.87690643 450.57148235 -212.87689085 449.90800212 -212.8768748 449.22441643 C-212.8767917 445.86196819 -212.87669266 442.49951994 -212.8765901 439.13707169 C-212.87657015 438.46933444 -212.87655021 437.8015972 -212.87652966 437.11362549 C-212.87648922 435.76329641 -212.87644742 434.41296734 -212.87640426 433.06263826 C-212.87579214 412.07522369 -212.88328744 391.08782529 -212.89697683 370.10041535 C-212.91236848 346.4937872 -212.92092848 322.88716681 -212.92001361 299.28053278 C-212.91968231 286.79219928 -212.92239948 274.30388403 -212.93319166 261.81555474 C-212.94232559 251.17814043 -212.94444836 240.54075262 -212.93768223 229.90333607 C-212.93443113 224.48305822 -212.93430892 219.06283114 -212.94303548 213.64255822 C-212.95096462 208.66604023 -212.94940447 203.68961273 -212.94075135 198.71309678 C-212.9392303 196.92703077 -212.94097882 195.14095779 -212.94661143 193.35490002 C-212.9969279 176.24613921 -211.84045852 159.18552045 -208.50366628 142.37751496 C-208.28863454 141.28994904 -208.07360281 140.20238312 -207.85205495 139.08186066 C-202.15594067 111.58580281 -190.53049942 85.79798556 -172.18726003 64.42829621 C-170.56524956 62.49554095 -170.56524956 62.49554095 -170.22632253 60.23298371 C-170.04972097 59.62067902 -169.87311941 59.00837433 -169.69116628 58.37751496 C-168.3763311 57.67506876 -167.03800448 57.01645868 -165.69116628 56.37751496 C-163.74678044 54.62255353 -161.89938187 52.86514042 -160.06616628 51.00251496 C-159.57632253 50.52040558 -159.08647878 50.03829621 -158.58179128 49.54157746 C-156.02560236 46.97142029 -154.22557521 44.64383099 -152.69116628 41.37751496 C-151.35783295 41.04418163 -150.02449962 40.71084829 -148.69116628 40.37751496 C-147.99179096 39.06104377 -147.32387495 37.72729345 -146.69116628 36.37751496 C-145.70116628 36.04751496 -144.71116628 35.71751496 -143.69116628 35.37751496 C-143.08917409 34.77423371 -142.48718191 34.17095246 -141.86694753 33.54938996 C-135.62542128 27.31906932 -126.52256698 23.18129004 -118.81616628 18.94001496 C-118.21054861 18.59809113 -117.60493093 18.2561673 -116.9809612 17.90388215 C-112.87777702 15.69348069 -109.29955974 14.8667051 -104.69116628 14.37751496 C-101.87254425 13.40201735 -101.87254425 13.40201735 -99.69116628 12.37751496 C-99.69116628 11.71751496 -99.69116628 11.05751496 -99.69116628 10.37751496 C-95.23616628 9.88251496 -95.23616628 9.88251496 -90.69116628 9.37751496 C-90.69116628 8.71751496 -90.69116628 8.05751496 -90.69116628 7.37751496 C-89.71018972 7.41489777 -88.72921316 7.45228058 -87.71851003 7.49079621 C-84.21503607 7.488164 -81.05700431 6.93069857 -77.65656143 6.12495083 C-51.81719564 0.10371944 -26.38158755 -0.05897899 0 0 Z " fill="#FD2668" transform="translate(212.69116628170013,-0.37751495838165283)"/>
<path d="M0 0 C5.48674583 0.00893812 10.97347042 0.00037115 16.46021616 -0.00586212 C27.1762516 -0.01529621 37.89221916 -0.00879812 48.60824951 0.00340082 C61.11162403 0.01709838 73.61498282 0.0153762 86.11836294 0.01326749 C109.11213477 0.00998965 132.10587703 0.02284547 155.09963744 0.04311253 C176.04234402 0.06148507 196.98501643 0.06729195 217.9277302 0.06184113 C219.27312734 0.06149469 220.61852449 0.0611486 221.96392163 0.06080284 C222.62909598 0.06063184 223.29427034 0.06046085 223.97960149 0.06028467 C227.32877471 0.05943098 230.67794795 0.05860721 234.02712119 0.05781567 C235.01847202 0.05758005 235.01847202 0.05758005 236.02985014 0.05733967 C253.58862443 0.05334069 271.14739532 0.05888255 288.70616764 0.06732696 C291.22566811 0.06853414 293.74516859 0.06974012 296.26466906 0.07094491 C297.50401224 0.07154844 298.74335542 0.07215198 300.02025446 0.07277381 C308.71800877 0.07663913 317.41575693 0.07626476 326.11351168 0.07435906 C336.72314413 0.07222855 347.33274389 0.07752584 357.94236716 0.09197261 C363.34653611 0.09917458 368.75065766 0.10332981 374.15483057 0.09872925 C379.11599302 0.09460879 384.07705821 0.09994129 389.03820602 0.11235533 C390.81846733 0.11524771 392.59873802 0.11490352 394.37899675 0.11071225 C411.47270846 0.07416897 428.51476464 1.23956593 445.30883372 4.56501496 C446.38624827 4.77352082 447.46366282 4.98202668 448.5737263 5.1968509 C457.63905671 7.04634644 466.25989077 9.76990911 474.94555247 12.92438996 C478.70990238 14.26497739 482.33821368 14.87747428 486.30883372 15.37751496 C489.74633372 16.94001496 489.74633372 16.94001496 492.30883372 18.37751496 C492.30883372 19.03751496 492.30883372 19.69751496 492.30883372 20.37751496 C493.23695872 20.48063996 494.16508372 20.58376496 495.12133372 20.69001496 C498.49989254 21.41872372 499.09034505 21.9573455 501.30883372 24.37751496 C502.26789622 24.59407746 502.26789622 24.59407746 503.24633372 24.81501496 C506.08414885 25.58896454 507.32043113 27.26082833 509.30883372 29.37751496 C512.12288124 31.42330824 512.12288124 31.42330824 514.87133372 32.31501496 C517.30883372 33.37751496 517.30883372 33.37751496 519.30883372 36.37751496 C519.98945872 36.70751496 520.67008372 37.03751496 521.37133372 37.37751496 C523.30883372 38.37751496 523.30883372 38.37751496 524.30883372 41.37751496 C525.23695872 41.56313996 525.23695872 41.56313996 526.18383372 41.75251496 C528.30883372 42.37751496 528.30883372 42.37751496 529.51195872 44.47907746 C531.90363238 48.33695106 534.9435722 51.22482808 538.18383372 54.37751496 C538.79613841 54.98079621 539.40844309 55.58407746 540.03930247 56.20563996 C541.23693994 57.3853257 542.4370609 58.56249652 543.63988841 59.73688996 C545.1542717 61.2255757 546.64351011 62.73526957 548.12914622 64.25251496 C550.12189265 66.410774 550.12189265 66.410774 552.30883372 67.37751496 C552.66316573 68.70542223 552.99355249 70.03979801 553.30883372 71.37751496 C554.26219319 73.18689216 554.26219319 73.18689216 555.46117747 74.96735871 C555.90308421 75.65829621 556.34499094 76.34923371 556.8002888 77.06110871 C557.27748362 77.80489777 557.75467844 78.54868683 558.24633372 79.31501496 C579.13208144 112.78158822 587.65904873 149.6151852 587.56953013 188.80637848 C587.57255785 190.71031777 587.57645041 192.61425585 587.5811227 194.51819181 C587.59133172 199.70292716 587.58923913 204.88759282 587.5849421 210.07233369 C587.58246185 215.6826233 587.59150515 221.29289669 587.59897959 226.90318024 C587.61169321 237.87683669 587.61352441 248.85046863 587.61117933 259.82413121 C587.60939207 268.75039998 587.61115454 277.67666135 587.61540377 286.60292923 C587.61599896 287.87620217 587.61659415 289.14947511 587.61720737 290.46133208 C587.6184192 293.04850818 587.61963334 295.63568428 587.62084975 298.22286038 C587.62863021 315.57991767 587.63256092 332.93697007 587.62853301 350.2940284 C587.62837663 350.97170755 587.62822025 351.64938669 587.62805914 352.34760157 C587.62725346 355.78170015 587.62640768 359.21579872 587.62554584 362.64989729 C587.62537475 363.3318181 587.62520366 364.01373891 587.62502739 364.71632399 C587.62468073 366.09533152 587.6243322 367.47433904 587.6239818 368.85334657 C587.61862768 390.29843069 587.62655004 411.74347367 587.64501536 433.18855011 C587.66577811 457.32959064 587.67641877 481.47059791 587.67243987 505.61164999 C587.6705324 518.37605366 587.67297087 531.14041986 587.68715441 543.90481675 C587.69910934 554.7729481 587.70042728 565.64101893 587.68836424 576.50915118 C587.682504 582.04518646 587.68129638 587.58111126 587.69336665 593.11713898 C587.78089633 636.17295414 587.78089633 636.17295414 584.30883372 654.37751496 C583.95341738 656.30655136 583.95341738 656.30655136 583.59082091 658.27455819 C583.01528565 661.23164826 582.35178671 664.14269218 581.62133372 667.06501496 C581.23896555 668.61406525 581.23896555 668.61406525 580.84887278 670.19440949 C574.99460188 692.90856093 564.40267335 713.71206012 550.30883372 732.37751496 C549.39283519 733.60756079 548.48270413 734.84199686 547.57836497 736.08063996 C547.16820139 736.63912629 546.75803782 737.19761261 546.33544505 737.77302277 C545.12517188 739.52028615 545.12517188 739.52028615 544.30883372 742.37751496 C542.97909735 743.05132756 541.64492941 743.71640186 540.30883372 744.37751496 C538.55116154 745.94901625 536.84605191 747.58037308 535.18383372 749.25251496 C534.31500559 750.11618683 533.44617747 750.97985871 532.55102122 751.86970246 C530.59978791 754.05209233 529.57166968 755.79994567 528.30883372 758.37751496 C526.65066588 759.06504797 524.98424036 759.73312779 523.30883372 760.37751496 C522.97883372 761.36751496 522.64883372 762.35751496 522.30883372 763.37751496 C521.31883372 763.70751496 520.32883372 764.03751496 519.30883372 764.37751496 C518.60113841 765.10970246 517.89344309 765.84188996 517.16430247 766.59626496 C513.63785742 770.03105138 509.8340619 772.36944978 505.62133372 774.87751496 C504.82058421 775.3587381 504.01983469 775.83996125 503.19482005 776.33576691 C487.50113786 785.69091255 487.50113786 785.69091255 481.30883372 785.37751496 C481.30883372 786.03751496 481.30883372 786.69751496 481.30883372 787.37751496 C478.66883372 787.70751496 476.02883372 788.03751496 473.30883372 788.37751496 C473.30883372 789.03751496 473.30883372 789.69751496 473.30883372 790.37751496 C472.53539622 790.49868683 471.76195872 790.61985871 470.96508372 790.74470246 C464.99001312 791.70603807 459.15290793 792.80411036 453.30883372 794.37751496 C453.30883372 795.03751496 453.30883372 795.69751496 453.30883372 796.37751496 C452.40548289 796.35249909 452.40548289 796.35249909 451.48388255 796.32697785 C445.175546 796.22899018 439.21653106 796.81175732 432.99633372 797.81501496 C419.02518725 800.03552417 405.23694318 800.52606756 391.12267649 800.51795685 C389.30483767 800.52054549 387.48699941 800.52356003 385.66916192 800.52696025 C380.7036212 800.53497539 375.73809498 800.53681675 370.77254856 800.53755772 C365.40475183 800.53941798 360.03696245 800.54697027 354.66917002 800.55369294 C342.94316105 800.56723917 331.21715551 800.57329559 319.49114001 800.5777036 C312.15676517 800.58047311 304.82239163 800.58471181 297.48801768 800.58920777 C277.14654463 800.60139711 256.80507261 800.6116961 236.46359599 800.61508286 C235.16319608 800.61530243 233.86279617 800.61552199 232.5229902 800.61574821 C230.56793769 800.61607563 230.56793769 800.61607563 228.57338917 800.61640966 C225.93263241 800.61685311 223.29187564 800.61729968 220.65111887 800.61774933 C218.68629314 800.61808148 218.68629314 800.61808148 216.68177396 800.61842033 C195.48873585 800.62236271 174.29573225 800.63980114 153.10270745 800.66310886 C131.29856522 800.68689326 109.49444025 800.69928798 87.69028485 800.70045078 C75.46665436 800.70136373 63.2430688 800.7070193 51.01945078 800.72527039 C40.60411223 800.74076759 30.18883249 800.74573578 19.77348459 800.73753229 C14.47165962 800.73365912 9.16995272 800.73438943 3.86814272 800.74858963 C-23.99996338 800.81882317 -51.34443104 800.43823735 -78.65210378 794.14704621 C-82.40882543 793.33693053 -85.85556963 793.2307705 -89.69116628 793.37751496 C-89.69116628 792.71751496 -89.69116628 792.05751496 -89.69116628 791.37751496 C-97.29202914 788.57654562 -97.29202914 788.57654562 -105.19116628 787.00251496 C-110.8494871 785.99210053 -115.66033321 783.07879971 -120.69116628 780.37751496 C-120.69116628 779.71751496 -120.69116628 779.05751496 -120.69116628 778.37751496 C-122.67116628 778.04751496 -124.65116628 777.71751496 -126.69116628 777.37751496 C-127.18616628 775.89251496 -127.18616628 775.89251496 -127.69116628 774.37751496 C-128.41819753 774.2731009 -129.14522878 774.16868683 -129.89429128 774.06110871 C-132.94581279 773.31527594 -134.86127615 772.21044291 -137.44116628 770.44001496 C-138.21976003 769.91536652 -138.99835378 769.39071808 -139.80054128 768.85017121 C-141.69116628 767.37751496 -141.69116628 767.37751496 -142.69116628 765.37751496 C-143.68116628 765.04751496 -144.67116628 764.71751496 -145.69116628 764.37751496 C-146.18616628 762.89251496 -146.18616628 762.89251496 -146.69116628 761.37751496 C-147.33054128 761.23313996 -147.96991628 761.08876496 -148.62866628 760.94001496 C-149.30929128 760.75438996 -149.98991628 760.56876496 -150.69116628 760.37751496 C-151.00054128 759.73813996 -151.30991628 759.09876496 -151.62866628 758.44001496 C-153.08392788 755.61509539 -154.7951063 755.50768471 -157.69116628 754.37751496 C-159.31616628 752.44001496 -159.31616628 752.44001496 -160.69116628 750.37751496 C-162.31838121 748.60880308 -163.81820912 747.29157422 -165.81616628 745.94001496 C-167.69116628 744.37751496 -167.69116628 744.37751496 -168.03101003 742.60798371 C-168.97852155 739.40662822 -170.90893174 737.60696883 -173.12866628 735.12751496 C-196.76832016 707.7318683 -207.17443971 672.58545351 -211.69116628 637.37751496 C-211.77473719 636.76576442 -211.8583081 636.15401388 -211.94441146 635.52372545 C-212.98992956 626.77288306 -212.83329751 617.99186614 -212.82487905 609.19457734 C-212.82674898 607.3406279 -212.82905041 605.48667885 -212.83174437 603.63273042 C-212.83784664 598.55375251 -212.83773062 593.4747911 -212.83655 588.39581037 C-212.83634558 582.91154974 -212.84186874 577.42729437 -212.84660757 571.9430362 C-212.85490687 561.20237862 -212.85766211 550.46172654 -212.85821994 539.72106602 C-212.8586956 530.98483203 -212.86075283 522.24859984 -212.86392057 513.51236641 C-212.87129407 492.75323194 -212.87744556 471.99409855 -212.87692201 451.23496258 C-212.87690643 450.57148235 -212.87689085 449.90800212 -212.8768748 449.22441643 C-212.8767917 445.86196819 -212.87669266 442.49951994 -212.8765901 439.13707169 C-212.87657015 438.46933444 -212.87655021 437.8015972 -212.87652966 437.11362549 C-212.87648922 435.76329641 -212.87644742 434.41296734 -212.87640426 433.06263826 C-212.87579214 412.07522369 -212.88328744 391.08782529 -212.89697683 370.10041535 C-212.91236848 346.4937872 -212.92092848 322.88716681 -212.92001361 299.28053278 C-212.91968231 286.79219928 -212.92239948 274.30388403 -212.93319166 261.81555474 C-212.94232559 251.17814043 -212.94444836 240.54075262 -212.93768223 229.90333607 C-212.93443113 224.48305822 -212.93430892 219.06283114 -212.94303548 213.64255822 C-212.95096462 208.66604023 -212.94940447 203.68961273 -212.94075135 198.71309678 C-212.9392303 196.92703077 -212.94097882 195.14095779 -212.94661143 193.35490002 C-212.9969279 176.24613921 -211.84045852 159.18552045 -208.50366628 142.37751496 C-208.28863454 141.28994904 -208.07360281 140.20238312 -207.85205495 139.08186066 C-202.15594067 111.58580281 -190.53049942 85.79798556 -172.18726003 64.42829621 C-170.56524956 62.49554095 -170.56524956 62.49554095 -170.22632253 60.23298371 C-170.04972097 59.62067902 -169.87311941 59.00837433 -169.69116628 58.37751496 C-168.3763311 57.67506876 -167.03800448 57.01645868 -165.69116628 56.37751496 C-163.74678044 54.62255353 -161.89938187 52.86514042 -160.06616628 51.00251496 C-159.57632253 50.52040558 -159.08647878 50.03829621 -158.58179128 49.54157746 C-156.02560236 46.97142029 -154.22557521 44.64383099 -152.69116628 41.37751496 C-151.35783295 41.04418163 -150.02449962 40.71084829 -148.69116628 40.37751496 C-147.99179096 39.06104377 -147.32387495 37.72729345 -146.69116628 36.37751496 C-145.70116628 36.04751496 -144.71116628 35.71751496 -143.69116628 35.37751496 C-143.08917409 34.77423371 -142.48718191 34.17095246 -141.86694753 33.54938996 C-135.62542128 27.31906932 -126.52256698 23.18129004 -118.81616628 18.94001496 C-118.21054861 18.59809113 -117.60493093 18.2561673 -116.9809612 17.90388215 C-112.87777702 15.69348069 -109.29955974 14.8667051 -104.69116628 14.37751496 C-101.87254425 13.40201735 -101.87254425 13.40201735 -99.69116628 12.37751496 C-99.69116628 11.71751496 -99.69116628 11.05751496 -99.69116628 10.37751496 C-95.23616628 9.88251496 -95.23616628 9.88251496 -90.69116628 9.37751496 C-90.69116628 8.71751496 -90.69116628 8.05751496 -90.69116628 7.37751496 C-89.71018972 7.41489777 -88.72921316 7.45228058 -87.71851003 7.49079621 C-84.21503607 7.488164 -81.05700431 6.93069857 -77.65656143 6.12495083 C-51.81719564 0.10371944 -26.38158755 -0.05897899 0 0 Z M69.10204661 104.28254426 C67.83972565 104.34247132 67.83972565 104.34247132 66.55190325 104.40360904 C43.96636913 105.50279651 21.80131256 107.99036494 0.30883372 115.37751496 C-0.68164968 115.71323517 -0.68164968 115.71323517 -1.69214284 116.05573761 C-18.05982761 121.74238263 -34.46589445 130.13704656 -47.69116628 141.37751496 C-48.93833425 142.43519074 -48.93833425 142.43519074 -50.21069753 143.51423371 C-52.75892588 145.74945133 -55.23137546 148.04540793 -57.69116628 150.37751496 C-58.64893972 151.27083527 -59.60671316 152.16415558 -60.59351003 153.08454621 C-67.82154966 159.96772546 -73.79373365 167.42891568 -79.46191823 175.63459504 C-80.25623601 176.76083826 -81.07646325 177.8694369 -81.9262737 178.95441926 C-86.0676063 184.32715694 -88.53655851 190.33112544 -91.12866628 196.56501496 C-91.61021169 197.71977326 -92.0917571 198.87453156 -92.5878948 200.06428254 C-111.39288126 245.96469407 -109.85635353 295.3642545 -109.82549179 344.10742414 C-109.82291561 349.46917831 -109.82532003 354.83093099 -109.82687795 360.19268525 C-109.82868443 369.18650862 -109.82633351 378.18032371 -109.82153738 387.17414582 C-109.81609606 397.49543608 -109.81786268 407.81670658 -109.82336378 418.13799638 C-109.82793668 427.08413355 -109.82852528 436.03026485 -109.82592511 444.97640282 C-109.82438532 450.28261648 -109.8241041 455.58882093 -109.8274616 460.89503396 C-110.15446747 502.22543036 -110.15446747 502.22543036 -106.87866628 543.37751496 C-106.78991231 544.06876465 -106.70115835 544.76001435 -106.60971487 545.472211 C-100.75871441 590.91072114 -82.62716857 632.55700366 -45.61035573 661.27717316 C-33.67039226 671.05784752 -33.67039226 671.05784752 -19.69116628 675.37751496 C-19.69116628 676.03751496 -19.69116628 676.69751496 -19.69116628 677.37751496 C-13.7117771 679.76644349 -7.71008333 682.09011566 -1.69116628 684.37751496 C-0.95978445 684.65998078 -0.22840261 684.9424466 0.52514231 685.23347199 C28.95904229 696.08142966 60.18452129 696.24053704 90.25414622 696.91657746 C91.19855885 696.93786021 92.14297148 696.95914296 93.11600268 696.98107064 C125.51839152 697.68021698 157.93449844 697.56491747 190.34267908 697.56262594 C196.68777944 697.56293139 203.03283762 697.57115104 209.37792552 697.58332551 C257.10126712 697.83155929 257.10126712 697.83155929 304.79711497 696.49079621 C305.61712677 696.45184927 306.43713858 696.41290234 307.28199923 696.3727752 C361.3427199 693.68123801 408.26072841 678.09942427 445.30883372 637.37751496 C449.04263724 632.96743871 452.26440854 628.28242218 455.30883372 623.37751496 C455.68942942 622.77149445 456.07002512 622.16547394 456.46215403 621.54108918 C463.15209741 610.72801333 467.96226294 599.30094889 472.30883372 587.37751496 C472.56148997 586.69753449 472.81414622 586.01755402 473.07445872 585.31696808 C484.94858158 552.82804859 484.4642772 515.61310035 484.45409739 481.48444855 C484.45710191 479.42123587 484.46050732 477.35802375 484.464275 475.29481232 C484.47298672 469.76959899 484.47544757 464.2444012 484.47609079 458.71918166 C484.47680852 455.2466753 484.47895624 451.77417273 484.48158801 448.30166733 C484.49079815 436.12919348 484.49492826 423.95673046 484.49413645 411.78425324 C484.49353646 400.53037568 484.50408428 389.27654618 484.51988012 378.02268076 C484.53305474 368.28082966 484.53831625 358.53899408 484.53768104 348.79713416 C484.53742901 343.01399809 484.54011432 337.23090486 484.55085909 331.44777787 C484.65621446 270.49298239 484.41679674 206.06750794 440.35180247 158.63142121 C438.93207528 157.06510651 437.57040631 155.44498663 436.25805247 153.78767121 C433.32314095 150.15873251 429.89233886 147.35070438 426.30883372 144.37751496 C425.31883372 143.53833527 424.32883372 142.69915558 423.30883372 141.83454621 C397.69480472 120.5794625 365.01701937 110.07512552 332.30883372 106.37751496 C331.46401438 106.27986847 330.61919505 106.18222199 329.74877512 106.08161652 C317.91526785 104.76555149 306.06631832 104.17613276 294.16845286 103.83332551 C293.44581566 103.81209858 292.72317847 103.79087165 291.97864318 103.76900148 C273.3402303 103.23473688 254.701409 103.21286595 236.05668104 103.21025789 C233.13045141 103.20953397 230.20422613 103.20737535 227.27799761 103.20476067 C216.97959827 103.19558677 206.68121162 103.19141586 196.38280833 103.19221222 C186.92620694 103.19281165 177.46966282 103.18226539 168.01307589 103.16646856 C159.77062611 103.15321216 151.52819465 103.14803571 143.28573436 103.14866763 C138.41733447 103.14891728 133.54898577 103.14637344 128.68059695 103.13548958 C108.79689653 103.09420107 88.96519647 103.31934356 69.10204661 104.28254426 Z " fill="#F13278" transform="translate(212.69116628170013,-0.37751495838165283)"/>
<path d="M0 0 C4.94066083 0.00905109 9.88132091 0.00701802 14.82198834 0.00663924 C23.09673936 0.00756405 31.37145281 0.01608629 39.64619184 0.0299089 C49.10704046 0.04565807 58.56784831 0.05090494 68.02870911 0.05017334 C78.26842828 0.04948947 88.50813252 0.05647042 98.74784708 0.06561995 C101.62852293 0.06771424 104.50919625 0.06845591 107.38987279 0.06885886 C125.73725949 0.07389756 144.07614233 0.14600104 162.41718793 0.66418624 C163.42684434 0.69121294 163.42684434 0.69121294 164.45689785 0.71878564 C186.03990728 1.31517977 207.80879137 3.01076002 228.80756879 8.23571944 C229.51413617 8.40797042 230.22070355 8.5802214 230.94868207 8.7576921 C255.49436862 14.90120459 278.07128736 26.26075057 296.80756879 43.23571944 C297.65061566 43.9588835 298.49366254 44.68204757 299.36225629 45.42712569 C304.31555905 49.68830029 308.68669457 54.16850668 312.80756879 59.23571944 C313.57971723 60.17028975 314.35186566 61.10486007 315.14741254 62.06775069 C321.75573284 70.24058954 326.98789797 78.91020619 331.80756879 88.23571944 C332.12854535 88.85173018 332.44952191 89.46774093 332.78022504 90.10241866 C354.99373216 133.33278476 353.13154199 184.04303214 353.0762198 231.30482697 C353.07106496 237.10946009 353.07587739 242.91408771 353.07899213 248.71872115 C353.08260645 258.46316852 353.07790178 268.20758534 353.06831098 277.95202804 C353.05744984 289.11389432 353.06094537 300.27568736 353.07196379 311.43755186 C353.08113187 321.12357123 353.08227557 330.80956896 353.07708645 340.49559128 C353.07401598 346.23522891 353.07341723 351.97483251 353.08015943 357.71446776 C353.10129359 378.62489804 353.07600977 399.50614653 351.90815473 420.38952804 C351.86879694 421.10526276 351.82943914 421.82099748 351.78888869 422.55842113 C350.72545951 441.26603048 348.68948033 460.36872169 342.80756879 478.23571944 C342.53960492 479.0531462 342.27164105 479.87057296 341.99555707 480.71277022 C334.33055207 503.75753105 323.73294654 523.63763192 306.80756879 541.23571944 C306.3401225 541.73426436 305.87267621 542.23280929 305.39106488 542.74646163 C287.38278602 561.91412176 266.49112742 573.63315066 241.80756879 582.23571944 C240.85648236 582.57442061 239.90539594 582.91312179 238.92548871 583.26208663 C218.05832958 590.50396833 196.25585744 592.13531983 174.35392499 593.03546309 C171.37996397 593.16081314 168.40907031 593.3117502 165.43752789 593.48489547 C148.42356127 594.43272266 131.41285547 594.38343121 114.37924123 594.37004495 C110.04199536 594.3674618 105.70475129 594.36987607 101.36750531 594.37143111 C94.065296 594.37324046 86.76309686 594.37088406 79.4608891 594.36609054 C72.06830422 594.36129204 64.67573956 594.36123893 57.28315473 594.36609054 C-13.4909484 594.41132385 -13.4909484 594.41132385 -41.32914996 593.77868819 C-42.22070788 593.75847232 -43.11226581 593.73825644 -44.03084064 593.71742797 C-76.52377713 592.94861827 -107.61683357 591.08761645 -138.19243121 579.23571944 C-139.63331697 578.69137096 -141.07467737 578.14827611 -142.51664996 577.60681319 C-145.41838374 576.50572286 -148.31011423 575.38643332 -151.19243121 574.23571944 C-151.19243121 573.57571944 -151.19243121 572.91571944 -151.19243121 572.23571944 C-151.91430621 572.12099288 -152.63618121 572.00626632 -153.37993121 571.88806319 C-167.27159791 568.66596828 -180.09899944 555.76748726 -190.19243121 546.23571944 C-190.9903609 545.50224288 -191.78829059 544.76876632 -192.61039996 544.01306319 C-209.64971918 527.78643011 -220.08823838 508.03974969 -228.19243121 486.23571944 C-228.57359088 485.23605147 -228.57359088 485.23605147 -228.96245074 484.21618819 C-234.70259755 469.05805209 -236.99530799 453.13821086 -238.87993121 437.11071944 C-238.99933063 436.13135421 -239.11873004 435.15198897 -239.24174762 434.142946 C-242.10385192 407.82484078 -241.3434807 381.07078968 -241.32675672 354.64013577 C-241.324182 349.27884365 -241.32658464 343.91755303 -241.32814288 338.55626082 C-241.32995008 329.56065726 -241.32759684 320.56506197 -241.32280231 311.56945968 C-241.31736418 301.24877821 -241.319125 290.92811652 -241.32462871 280.60743552 C-241.32920351 271.66215213 -241.3297892 262.7168746 -241.32719004 253.77159041 C-241.32565084 248.46588891 -241.32536722 243.16019663 -241.32872653 237.85449576 C-241.36142834 178.03789628 -241.36142834 178.03789628 -238.94243121 156.98571944 C-238.81312213 155.8428044 -238.68381305 154.69988936 -238.55058551 153.52234054 C-236.18176268 133.83345893 -231.6062373 115.61834205 -224.19243121 97.23571944 C-223.89046832 96.46695479 -223.58850543 95.69819015 -223.27739215 94.9061296 C-219.66382879 85.75513368 -215.34221311 77.97363184 -209.19243121 70.23571944 C-208.48860309 69.257321 -207.78477496 68.27892257 -207.05961871 67.27087569 C-187.97388456 41.10077581 -161.82086255 22.61709844 -131.19243121 12.23571944 C-130.46249957 11.98483565 -129.73256793 11.73395186 -128.98051715 11.47546554 C-107.39538329 4.24020017 -85.0015935 2.21376748 -62.39921832 1.14074874 C-61.52079142 1.0981522 -60.64236453 1.05555567 -59.73731863 1.01166832 C-39.82440808 0.06533115 -19.9315787 -0.04455937 0 0 Z M-58.4910152 54.12512374 C-59.33677116 54.16400761 -60.18252712 54.20289149 -61.05391204 54.24295366 C-97.04856621 55.94131218 -132.35327526 63.63313913 -157.78325152 90.94421554 C-193.60446416 131.47752692 -188.53340947 194.8924811 -188.46108222 245.61429262 C-188.45588351 250.43333966 -188.46075157 255.25238058 -188.46385455 260.07142806 C-188.4674582 268.16193195 -188.46279463 276.25239894 -188.4531734 284.34289718 C-188.44232938 293.56543385 -188.44579976 302.78788173 -188.45682621 312.01041621 C-188.46604392 320.05587615 -188.46711437 328.1013101 -188.46194887 336.14677364 C-188.45890268 340.89562367 -188.45820645 345.64443275 -188.46502185 350.39327979 C-188.48969739 370.41910261 -188.20805787 390.39997 -187.31645465 410.40783858 C-187.27869812 411.29885233 -187.24094158 412.18986607 -187.20204091 413.10788023 C-186.2796977 434.34336873 -183.79656867 455.58636831 -175.19243121 475.23571944 C-174.92704547 475.85044112 -174.66165973 476.4651628 -174.38823199 477.09851241 C-163.20107615 502.46186095 -142.69534878 520.29325928 -117.19243121 530.23571944 C-105.18856788 534.65417526 -92.85424071 536.72108034 -80.19243121 538.23571944 C-79.58240756 538.31488097 -78.97238391 538.3940425 -78.34387469 538.47560287 C-71.74521586 539.28359522 -65.15794117 539.54773048 -58.51664996 539.76306319 C-57.29249881 539.80438872 -56.06834765 539.84571425 -54.80710101 539.88829207 C-40.87564736 540.33921537 -26.94199084 540.59892969 -13.00493121 540.79821944 C-12.30206737 540.80841235 -11.59920352 540.81860526 -10.87504077 540.82910705 C42.99564181 541.60451939 96.90748561 541.93080983 150.76881909 540.48212218 C152.95401641 540.42430562 155.13927993 540.37040395 157.3245976 540.31735396 C177.41311905 539.81784609 197.42187335 538.76878937 216.99506879 533.86071944 C218.29625653 533.54155562 218.29625653 533.54155562 219.6237309 533.21594405 C226.07819755 531.56669165 231.91144972 529.35170642 237.80756879 526.23571944 C239.27710004 525.55896163 239.27710004 525.55896163 240.77631879 524.86853194 C247.97853711 521.50385924 253.82356724 517.44091354 259.80756879 512.23571944 C260.57971723 511.59634444 261.35186566 510.95696944 262.14741254 510.29821944 C287.50545736 488.7980652 294.93519562 456.23379897 298.17866254 424.61853194 C300.15899861 398.72182946 299.96112918 372.63914755 299.94189429 346.68490505 C299.93930356 342.0697575 299.94172643 337.45461161 299.94328046 332.83946395 C299.94508325 325.09841715 299.94274636 317.35738 299.93793988 309.61633468 C299.93250291 300.75948113 299.93426357 291.90265064 299.93976629 283.04579765 C299.94435435 275.34285916 299.9449205 267.63992747 299.94232762 259.93698806 C299.94079545 255.37962027 299.9404841 250.82226319 299.94386411 246.26489615 C303.17955051 161.09591602 303.17955051 161.09591602 266.41596723 87.80505538 C239.82009121 61.35149844 204.60121162 56.35754984 168.7594111 54.4526813 C166.10413696 54.30690291 163.45114067 54.1523868 160.79741502 53.98354793 C150.06046439 53.31602859 139.37159811 53.08666926 128.6159184 53.09045577 C126.87685315 53.08745256 125.13778855 53.08404743 123.39872479 53.08027816 C118.7256956 53.07154104 114.05268479 53.06910413 109.37964821 53.06846237 C106.4354138 53.06774472 103.49118386 53.06559687 100.54695058 53.06296515 C90.2032377 53.05373789 79.8595376 53.049626 69.51582074 53.05041671 C59.99593299 53.05101323 50.47610267 53.04053893 40.95622939 53.02467304 C32.69287094 53.01141091 24.42953079 53.00624063 16.16616184 53.00687212 C11.27181404 53.00712219 6.37751712 53.00455458 1.48318028 52.99369407 C-18.53117543 52.95249368 -38.49663955 53.17227506 -58.4910152 54.12512374 Z " fill="#FEFEFE" transform="translate(344.19243121147156,102.76428055763245)"/>
<path d="M0 0 C41.90334064 -1.46729939 80.37639611 16.01607267 110.78125 43.92407227 C115.76478186 48.6178079 120.04671114 53.73617025 124.17578125 59.1953125 C124.97628906 60.23042969 125.77679687 61.26554687 126.6015625 62.33203125 C150.57991127 94.06601615 160.71551574 135.07521105 155.3046875 174.4375 C150.46469696 204.31033281 137.98430607 231.30939186 118.17578125 254.1953125 C117.49515625 254.99839844 116.81453125 255.80148437 116.11328125 256.62890625 C111.80589535 261.61773405 107.28702003 266.03863444 102.17578125 270.1953125 C100.77392578 271.35353516 100.77392578 271.35353516 99.34375 272.53515625 C65.85642018 299.60878421 25.33986161 308.15781348 -16.82421875 305.1953125 C-24.73073236 304.33958347 -32.25190108 302.58973312 -39.82421875 300.1953125 C-40.64293457 299.94362305 -41.46165039 299.69193359 -42.30517578 299.43261719 C-59.02991622 294.1553127 -75.12658252 286.19690604 -88.82421875 275.1953125 C-89.69820313 274.52242187 -90.5721875 273.84953125 -91.47265625 273.15625 C-112.91828146 256.25783472 -128.14698983 235.21790496 -138.82421875 210.1953125 C-139.14535645 209.45522949 -139.46649414 208.71514648 -139.79736328 207.95263672 C-147.26691585 190.12910771 -149.40656646 171.64005509 -149.38671875 152.5078125 C-149.38925659 151.7202356 -149.39179443 150.93265869 -149.39440918 150.12121582 C-149.38019748 111.21972462 -133.37423694 75.29150479 -106.82421875 47.1953125 C-106.03917969 46.33421875 -105.25414062 45.473125 -104.4453125 44.5859375 C-81.43991639 20.28099993 -48.89714817 5.07557944 -15.82421875 1.1953125 C-14.81359375 1.06769531 -13.80296875 0.94007813 -12.76171875 0.80859375 C-8.51423718 0.36422408 -4.26397088 0.21777175 0 0 Z " fill="#FEFDFE" transform="translate(396.82421875,246.8046875)"/>
<path d="M0 0 C27.66600517 -1.17969762 51.61391593 8.00042796 72.20898438 26.54052734 C90.32989541 43.46195928 102.22922216 67.22816087 103.28320312 92.11474609 C103.5836584 104.97106927 103.56404044 116.9847762 98.89648438 129.10302734 C98.46078125 130.34568359 98.02507812 131.58833984 97.57617188 132.86865234 C88.58720632 157.66904215 70.38899504 177.67606208 46.69433594 189.17138672 C22.73501636 200.03238472 -4.71569734 201.84497488 -29.60351562 192.91552734 C-41.10749976 188.18941332 -51.87607103 182.53180595 -61.10351562 174.10302734 C-61.61124512 173.64299316 -62.11897461 173.18295898 -62.64208984 172.70898438 C-75.77520624 160.66737068 -83.48303525 147.51668368 -90.10351562 131.10302734 C-90.64298828 129.83072266 -90.64298828 129.83072266 -91.19335938 128.53271484 C-99.53685887 106.25951017 -96.30192419 79.48509011 -87.03076172 58.09814453 C-82.27296894 47.86099799 -76.05721631 39.11935559 -68.10351562 31.10302734 C-67.27851563 30.23677734 -66.45351563 29.37052734 -65.60351562 28.47802734 C-64.77851563 27.69427734 -63.95351563 26.91052734 -63.10351562 26.10302734 C-62.51828125 25.52294922 -61.93304688 24.94287109 -61.33007812 24.34521484 C-44.47935464 8.37148068 -22.83227123 1.11829369 0 0 Z " fill="#FD0C63" transform="translate(396.103515625,300.89697265625)"/>
<path d="M0 0 C9.04660121 5.69655476 14.83053154 13.06386254 17.53125 23.46484375 C19.34259423 33.26119715 17.57235679 42.23159944 12.3125 50.6875 C6.74704659 58.46539292 -0.50139037 64.26703743 -9.8125 66.75 C-23.0331765 67.7869158 -32.32591962 65.72646982 -42.87890625 57.54296875 C-49.62821089 51.55168537 -53.4491016 42.24050483 -54.23828125 33.30078125 C-54.41520536 26.17725804 -53.59220334 21.15806288 -50 15 C-49.34644531 13.83984375 -49.34644531 13.83984375 -48.6796875 12.65625 C-43.9292919 4.86871623 -37.54039052 -0.15646151 -28.96875 -3.3046875 C-19.257181 -5.57923919 -8.69537052 -5.12920635 0 0 Z " fill="#FEFCFE" transform="translate(577,210)"/>
<path d="M0 0 C0 0.66 0 1.32 0 2 C-1.0415625 2.46148438 -2.083125 2.92296875 -3.15625 3.3984375 C-22.84158821 12.28463076 -39.19391934 23.53959105 -54.07421875 39.19921875 C-56 41 -56 41 -58 41 C-58.226875 41.53109375 -58.45375 42.0621875 -58.6875 42.609375 C-60.43187872 45.78663625 -62.71177623 48.45787136 -65 51.25 C-69.1553825 56.42817151 -72.92831064 61.73846443 -76.4375 67.375 C-76.83775391 68.01598633 -77.23800781 68.65697266 -77.65039062 69.31738281 C-80.36749391 73.75959467 -82.72137406 78.31817632 -85 83 C-85.66 83 -86.32 83 -87 83 C-83.50957216 71.49195574 -76.38857153 61.76828076 -69.03759766 52.41845703 C-66.90043957 49.6768502 -65.16378513 47.42224038 -63.8984375 44.16015625 C-62.73581217 41.36480056 -61.70490364 41.24330659 -59 40 C-57.05561416 38.24503857 -55.20821558 36.48762546 -53.375 34.625 C-52.88515625 34.14289062 -52.3953125 33.66078125 -51.890625 33.1640625 C-49.33443607 30.59390533 -47.53440893 28.26631604 -46 25 C-44.66666667 24.66666667 -43.33333333 24.33333333 -42 24 C-41.30062468 22.68352881 -40.63270867 21.34977849 -40 20 C-39.01 19.67 -38.02 19.34 -37 19 C-36.39800781 18.39671875 -35.79601562 17.7934375 -35.17578125 17.171875 C-30.85694471 12.86079221 -25.25250652 10.05215041 -20 7 C-19.01507568 6.42451416 -19.01507568 6.42451416 -18.01025391 5.83740234 C-16.01714099 4.68466015 -14.01180757 3.55724447 -12 2.4375 C-11.37762451 2.07881836 -10.75524902 1.72013672 -10.11401367 1.35058594 C-6.35708176 -0.69207714 -4.10163749 -1.42159027 0 0 Z " fill="#9106F6" transform="translate(106,16)"/>
<path d="M0 0 C6.625 -0.125 6.625 -0.125 10 1 C12.74229621 1.06792065 15.46871611 0.99793463 18.2109375 0.9375 C21 1 21 1 23.38372612 1.49681091 C25.88586361 1.9780481 28.1071466 2.12074565 30.64944458 2.11352539 C31.55441681 2.1134549 32.45938904 2.1133844 33.39178467 2.11331177 C34.37253967 2.10814545 35.35329468 2.10297913 36.36376953 2.09765625 C37.40687286 2.09619598 38.4499762 2.09473572 39.52468872 2.0932312 C41.7896179 2.08942778 44.05454411 2.08331391 46.31946182 2.07516479 C49.92081546 2.06236493 53.52213206 2.05587468 57.12350464 2.05102539 C66.08068743 2.0376709 75.03783564 2.01363937 83.99499512 1.98962402 C91.54732958 1.96974505 99.09965017 1.95415718 106.65200424 1.94406128 C110.1694869 1.93766072 113.68691192 1.92514613 117.20437622 1.91235352 C129.83889559 1.88401802 142.39226444 2.16024957 155 3 C155 3.33 155 3.66 155 4 C137.3619399 4.0234248 119.7238847 4.04102606 102.08581257 4.05181217 C93.89501231 4.05695485 85.70422176 4.06395864 77.51342773 4.07543945 C70.36917352 4.08544854 63.22492633 4.09186816 56.08066529 4.09408849 C52.30254539 4.09538508 48.52444559 4.09840367 44.74633217 4.10573006 C41.18001327 4.11258878 37.61372248 4.11459722 34.04739761 4.11310768 C32.13548165 4.11350792 30.22356866 4.11885121 28.31166077 4.12442017 C6.86367566 4.09923348 6.86367566 4.09923348 0 1 C0 0.67 0 0.34 0 0 Z " fill="#FECA05" transform="translate(161,796)"/>
<path d="M0 0 C4.41857138 0.57988645 7.40528622 2.25340652 11.1875 4.5625 C25.56136045 13.04597173 41.50803636 19.98913164 58 23 C59.72944476 23.33188745 61.45861509 23.66520837 63.1875 24 C64.04730469 24.165 64.90710938 24.33 65.79296875 24.5 C68 25 68 25 70 26 C71.66194453 26.35613097 73.328451 26.69208308 75 27 C75 27.33 75 27.66 75 28 C68.48829622 28.39070223 62.79120276 27.1933631 56.46484375 25.65625 C52.89528177 24.98016611 49.62398745 24.88920293 46 25 C46 24.34 46 23.68 46 23 C38.39913715 20.19903066 38.39913715 20.19903066 30.5 18.625 C24.84167918 17.61458557 20.03083308 14.70128475 15 12 C15 11.34 15 10.68 15 10 C12.03 9.505 12.03 9.505 9 9 C8.67 8.01 8.34 7.02 8 6 C7.236875 5.896875 6.47375 5.79375 5.6875 5.6875 C2.81583516 4.95288806 1.76957906 4.3283935 0 2 C0 1.34 0 0.68 0 0 Z " fill="#FEAE16" transform="translate(77,768)"/>
<path d="M0 0 C0.66 0.33 1.32 0.66 2 1 C0.71937515 2.7074998 -0.61767557 4.37373596 -2 6 C-2.66 6 -3.32 6 -4 6 C-4.226875 6.53109375 -4.45375 7.0621875 -4.6875 7.609375 C-6.43187872 10.78663625 -8.71177623 13.45787136 -11 16.25 C-15.1553825 21.42817151 -18.92831064 26.73846443 -22.4375 32.375 C-22.83775391 33.01598633 -23.23800781 33.65697266 -23.65039062 34.31738281 C-26.36749391 38.75959467 -28.72137406 43.31817632 -31 48 C-31.66 48 -32.32 48 -33 48 C-29.50957216 36.49195574 -22.38857153 26.76828076 -15.03759766 17.41845703 C-12.39090188 14.02320084 -10.48322371 11.08456992 -9 7 C-7.1875 6 -7.1875 6 -5 5 C-3.29503463 3.37253306 -1.62102968 1.71108689 0 0 Z " fill="#9F07F4" transform="translate(52,51)"/>
<path d="M0 0 C4.53786254 0.57257399 7.95873055 2.49500933 11.8125 4.8125 C13.04982797 5.53938556 14.28810537 6.26465747 15.52734375 6.98828125 C16.41848877 7.50962646 16.41848877 7.50962646 17.32763672 8.04150391 C20.4795621 9.84799428 23.72628004 11.42861442 27 13 C27 14.32 27 15.64 27 17 C22.76570244 15.68938409 18.92592596 14.05643741 15 12 C15 11.34 15 10.68 15 10 C12.03 9.505 12.03 9.505 9 9 C8.67 8.01 8.34 7.02 8 6 C7.236875 5.896875 6.47375 5.79375 5.6875 5.6875 C2.81583516 4.95288806 1.76957906 4.3283935 0 2 C0 1.34 0 0.68 0 0 Z " fill="#FEA611" transform="translate(77,768)"/>
<path d="M0 0 C6.625 -0.125 6.625 -0.125 10 1 C11.85364289 1.04406878 13.70875399 1.03949392 15.5625 1 C20.77834395 0.88917197 20.77834395 0.88917197 23 2 C24.70363822 2.22622081 26.41328701 2.40888473 28.125 2.5625 C29.03507812 2.64628906 29.94515625 2.73007812 30.8828125 2.81640625 C31.58148438 2.87699219 32.28015625 2.93757812 33 3 C33 3.33 33 3.66 33 4 C7.36675202 4.31908607 7.36675202 4.31908607 0 1 C0 0.67 0 0.34 0 0 Z " fill="#FDB818" transform="translate(161,796)"/>
<path d="M0 0 C4.07376031 1.61010527 6.76507069 4.53822271 9.75 7.625 C10.25660156 8.140625 10.76320313 8.65625 11.28515625 9.1875 C12.52803902 10.45383339 13.76465276 11.7263144 15 13 C14.67 13.66 14.34 14.32 14 15 C11.27048977 14.62351583 10.23414335 14.28097201 8.4375 12.125 C7.963125 11.42375 7.48875 10.7225 7 10 C5.3480941 8.20445011 3.86111075 6.90872992 1.8125 5.5625 C1.214375 5.046875 0.61625 4.53125 0 4 C0 2.68 0 1.36 0 0 Z " fill="#FE8A28" transform="translate(45,740)"/>
<path d="M0 0 C2.65701497 2.65701497 2.52351467 4.4904844 3 8.1875 C3.67186984 12.98052421 4.5313335 17.39817829 6 22 C6.34135927 23.33130115 6.67925956 24.66358148 7 26 C6.34 26.33 5.68 26.66 5 27 C4.35220924 24.60468067 3.70670991 22.20878252 3.0625 19.8125 C2.88009766 19.13896484 2.69769531 18.46542969 2.50976562 17.77148438 C0.86180911 11.62910101 -0.12501565 6.37579817 0 0 Z " fill="#FE661D" transform="translate(4,650)"/>
<path d="M0 0 C0.66 0 1.32 0 2 0 C1.125 7.625 1.125 7.625 0 11 C0 11.845625 0 12.69125 0 13.5625 C0 16 0 16 -1 18 C-0.95875 18.825 -0.9175 19.65 -0.875 20.5 C-0.91625 21.325 -0.9575 22.15 -1 23 C-1.99 23.66 -2.98 24.32 -4 25 C-3.52557748 21.39519219 -3.04464879 17.79128188 -2.5625 14.1875 C-2.42779297 13.16333984 -2.29308594 12.13917969 -2.15429688 11.08398438 C-2.02216797 10.10107422 -1.89003906 9.11816406 -1.75390625 8.10546875 C-1.63345947 7.19949951 -1.5130127 6.29353027 -1.38891602 5.36010742 C-1 3 -1 3 0 0 Z " fill="#CC04EA" transform="translate(5,140)"/>
<path d="M0 0 C2.9375 0.8125 2.9375 0.8125 6 2 C6.33 2.99 6.66 3.98 7 5 C7.763125 5.103125 8.52625 5.20625 9.3125 5.3125 C13.48922316 6.38096406 14.65312982 8.47969473 17 12 C13.32965255 12 11.9000569 10.9247108 8.8125 9 C7.91144531 8.443125 7.01039063 7.88625 6.08203125 7.3125 C5.39496094 6.879375 4.70789063 6.44625 4 6 C4.33 5.01 4.66 4.02 5 3 C2.525 2.01 2.525 2.01 0 1 C0 0.67 0 0.34 0 0 Z " fill="#FD00DA" transform="translate(707,20)"/>
<path d="M0 0 C0 4.25491168 -2.47159742 6.07313316 -5.25 9 C-5.98669922 9.80050781 -5.98669922 9.80050781 -6.73828125 10.6171875 C-9.31357494 13.37790233 -11.88308798 15.8626889 -15 18 C-15.66 17.67 -16.32 17.34 -17 17 C-11.39 11.39 -5.78 5.78 0 0 Z " fill="#FE2558" transform="translate(656,638)"/>
<path d="M0 0 C1.9375 0.8125 1.9375 0.8125 4 2 C4.33 2.99 4.66 3.98 5 5 C7.01508358 5.73323796 7.01508358 5.73323796 9 6 C9.33 7.32 9.66 8.64 10 10 C6.22089522 10 5.53893899 9.00296038 2.8125 6.5 C2.09707031 5.8503125 1.38164063 5.200625 0.64453125 4.53125 C0.10183594 4.0259375 -0.44085937 3.520625 -1 3 C-0.67 2.01 -0.34 1.02 0 0 Z " fill="#FD00CD" transform="translate(732,36)"/>
<path d="M0 0 C0.66 0 1.32 0 2 0 C2.08078641 2.12438339 2.13909141 4.2496323 2.1875 6.375 C2.22230469 7.55835938 2.25710938 8.74171875 2.29296875 9.9609375 C2.19628906 10.96382812 2.09960938 11.96671875 2 13 C1.01 13.66 0.02 14.32 -1 15 C-0.67 10.05 -0.34 5.1 0 0 Z " fill="#D703E7" transform="translate(1,166)"/>
<path d="M0 0 C0.66 0.33 1.32 0.66 2 1 C1.52188823 2.77111844 1.0424722 4.54188483 0.5625 6.3125 C0.29566406 7.29863281 0.02882813 8.28476563 -0.24609375 9.30078125 C-0.78079425 11.21517526 -1.37144538 13.11433615 -2 15 C-2.66 15 -3.32 15 -4 15 C-3.43179252 9.54520815 -2.05362055 5.08940744 0 0 Z " fill="#BC05F6" transform="translate(13,111)"/>
<path d="M0 0 C6.39534884 0.69767442 6.39534884 0.69767442 9 2 C9 3.32 9 4.64 9 6 C5.08788267 4.84414715 2.1254959 3.64465038 -1 1 C-0.67 0.67 -0.34 0.34 0 0 Z " fill="#FB9020" transform="translate(95,779)"/>
<path d="M0 0 C0 0.66 0 1.32 0 2 C-1.0725 2.144375 -2.145 2.28875 -3.25 2.4375 C-5.91662949 2.83749442 -8.41399729 3.27591924 -11 4 C-11 3.34 -11 2.68 -11 2 C-6.89657963 -0.38570952 -4.61380251 -1.49270081 0 0 Z " fill="#8103FB" transform="translate(106,16)"/>
<path d="M0 0 C2.96175123 0.61277612 4.38058783 1.25372522 7 3 C7 4.32 7 5.64 7 7 C4.625 6.3125 4.625 6.3125 2 5 C0.6875 2.375 0.6875 2.375 0 0 Z " fill="#FE9317" transform="translate(70,763)"/>
<path d="M0 0 C1.98 1.65 3.96 3.3 6 5 C5.67 5.66 5.34 6.32 5 7 C2.11424181 6.60196439 1.17810487 6.20990931 -0.75 3.9375 C-1.1625 3.298125 -1.575 2.65875 -2 2 C-1.34 2 -0.68 2 0 2 C0 1.34 0 0.68 0 0 Z " fill="#FE8E11" transform="translate(54,748)"/>
<path d="M0 0 C2.4375 0.75 2.4375 0.75 5 2 C5.8125 4.125 5.8125 4.125 6 6 C2.48283697 6 1.62878252 5.17554415 -1 3 C-0.67 2.01 -0.34 1.02 0 0 Z " fill="#FD00D0" transform="translate(725,31)"/>
<path d="M0 0 C2.4375 0.8125 2.4375 0.8125 4.4375 2.8125 C3.4475 2.8125 2.4575 2.8125 1.4375 2.8125 C1.4375 3.4725 1.4375 4.1325 1.4375 4.8125 C-0.8725 4.1525 -3.1825 3.4925 -5.5625 2.8125 C-3.70773038 0.37201366 -3.14722556 -0.2302848 0 0 Z " fill="#FC00E3" transform="translate(696.5625,14.1875)"/>
<path d="M0 0 C1.64666203 0.1135629 3.29236082 0.24117381 4.9375 0.375 C5.85402344 0.44460938 6.77054688 0.51421875 7.71484375 0.5859375 C8.84599609 0.79089844 8.84599609 0.79089844 10 1 C10.33 1.66 10.66 2.32 11 3 C3.43365385 3.37211538 3.43365385 3.37211538 1.23828125 1.48828125 C0.82964844 0.99714844 0.42101562 0.50601563 0 0 Z " fill="#FEBC12" transform="translate(141,793)"/>
<path d="M0 0 C0.66 0.66 1.32 1.32 2 2 C1.01 4.31 0.02 6.62 -1 9 C-1.66 9 -2.32 9 -3 9 C-2.01 6.03 -1.02 3.06 0 0 Z " fill="#B106F4" transform="translate(18,99)"/>
<path d="M0 0 C2.97 0.495 2.97 0.495 6 1 C3.82575883 3.50037734 2.26954202 4.43628586 -1 5 C-1.33 4.34 -1.66 3.68 -2 3 C-1.34 2.34 -0.68 1.68 0 1 C0 0.67 0 0.34 0 0 Z " fill="#8706F8" transform="translate(113,10)"/>
<path d="M0 0 C1.875 0.25 1.875 0.25 4 1 C5.25 3.0625 5.25 3.0625 6 5 C4.68 5 3.36 5 2 5 C1.34 3.35 0.68 1.7 0 0 Z " fill="#FF851D" transform="translate(60,755)"/>
<path d="M0 0 C2.97 0 5.94 0 9 0 C9 0.33 9 0.66 9 1 C6.03 1 3.06 1 0 1 C0 0.67 0 0.34 0 0 Z " fill="#FF480E" transform="translate(635,799)"/>
<path d="M0 0 C2.64 0 5.28 0 8 0 C8 0.33 8 0.66 8 1 C5.36 1 2.72 1 0 1 C0 0.67 0 0.34 0 0 Z " fill="#FFD400" transform="translate(158,799)"/>
<path d="M0 0 C0.33 0 0.66 0 1 0 C1 2.64 1 5.28 1 8 C0.67 8 0.34 8 0 8 C0 5.36 0 2.72 0 0 Z " fill="#B900D7" transform="translate(0,155)"/>
<path d="M0 0 C2.64 0 5.28 0 8 0 C8 0.33 8 0.66 8 1 C5.36 1 2.72 1 0 1 C0 0.67 0 0.34 0 0 Z " fill="#FF00CF" transform="translate(637,0)"/>
<path d="M0 0 C2.31 0 4.62 0 7 0 C7 0.33 7 0.66 7 1 C4.69 1 2.38 1 0 1 C0 0.67 0 0.34 0 0 Z " fill="#FFBC00" transform="translate(150,798)"/>
<path d="M0 0 C0.33 0 0.66 0 1 0 C1 2.31 1 4.62 1 7 C0.67 7 0.34 7 0 7 C0 4.69 0 2.38 0 0 Z " fill="#FF5D00" transform="translate(1,645)"/>
<path d="M0 0 C0.33 0 0.66 0 1 0 C1 2.31 1 4.62 1 7 C0.67 7 0.34 7 0 7 C0 4.69 0 2.38 0 0 Z " fill="#F5008B" transform="translate(799,641)"/>
<path d="M0 0 C0.33 0 0.66 0 1 0 C1 2.31 1 4.62 1 7 C0.67 7 0.34 7 0 7 C0 4.69 0 2.38 0 0 Z " fill="#F56000" transform="translate(0,638)"/>
<path d="M0 0 C0.33 0 0.66 0 1 0 C1 2.31 1 4.62 1 7 C0.67 7 0.34 7 0 7 C0 4.69 0 2.38 0 0 Z " fill="#EC009D" transform="translate(799,152)"/>
<path d="M0 0 C2.31 0 4.62 0 7 0 C7 0.33 7 0.66 7 1 C4.69 1 2.38 1 0 1 C0 0.67 0 0.34 0 0 Z " fill="#9D00FF" transform="translate(155,0)"/>
<path d="M0 0 C1.98 0 3.96 0 6 0 C6 0.33 6 0.66 6 1 C4.02 1 2.04 1 0 1 C0 0.67 0 0.34 0 0 Z " fill="#FF4D18" transform="translate(644,798)"/>
<path d="M0 0 C0.33 0 0.66 0 1 0 C1 1.98 1 3.96 1 6 C0.67 6 0.34 6 0 6 C0 4.02 0 2.04 0 0 Z " fill="#FF0071" transform="translate(798,648)"/>
<path d="M0 0 C0.33 0 0.66 0 1 0 C1 1.98 1 3.96 1 6 C0.67 6 0.34 6 0 6 C0 4.02 0 2.04 0 0 Z " fill="#E900F4" transform="translate(1,149)"/>
<path d="M0 0 C0.33 0 0.66 0 1 0 C1 1.98 1 3.96 1 6 C0.67 6 0.34 6 0 6 C0 4.02 0 2.04 0 0 Z " fill="#F400BB" transform="translate(798,146)"/>
<path d="M0 0 C1.98 0 3.96 0 6 0 C6 0.33 6 0.66 6 1 C4.02 1 2.04 1 0 1 C0 0.67 0 0.34 0 0 Z " fill="#FF00E9" transform="translate(645,1)"/>
<path d="M0 0 C1.98 0 3.96 0 6 0 C6 0.33 6 0.66 6 1 C4.02 1 2.04 1 0 1 C0 0.67 0 0.34 0 0 Z " fill="#9B00FF" transform="translate(148,1)"/>
<path d="M0 0 C1.65 0 3.3 0 5 0 C5 0.33 5 0.66 5 1 C3.35 1 1.7 1 0 1 C0 0.67 0 0.34 0 0 Z " fill="#FF430C" transform="translate(651,797)"/>
<path d="M0 0 C1.65 0 3.3 0 5 0 C5 0.33 5 0.66 5 1 C3.35 1 1.7 1 0 1 C0 0.67 0 0.34 0 0 Z " fill="#FFBA00" transform="translate(145,797)"/>
<path d="M0 0 C1.65 0 3.3 0 5 0 C5 0.33 5 0.66 5 1 C3.35 1 1.7 1 0 1 C0 0.67 0 0.34 0 0 Z " fill="#FF8C00" transform="translate(139,796)"/>
<path d="M0 0 C0.33 0 0.66 0 1 0 C1 1.65 1 3.3 1 5 C0.67 5 0.34 5 0 5 C0 3.35 0 1.7 0 0 Z " fill="#FF7600" transform="translate(4,662)"/>
<path d="M0 0 C0.33 0 0.66 0 1 0 C1 1.65 1 3.3 1 5 C0.67 5 0.34 5 0 5 C0 3.35 0 1.7 0 0 Z " fill="#FF00B2" transform="translate(796,659)"/>
<path d="M0 0 C0.33 0 0.66 0 1 0 C1 1.65 1 3.3 1 5 C0.67 5 0.34 5 0 5 C0 3.35 0 1.7 0 0 Z " fill="#FF0098" transform="translate(797,654)"/>
<path d="M0 0 C0.33 0 0.66 0 1 0 C1 1.65 1 3.3 1 5 C0.67 5 0.34 5 0 5 C0 3.35 0 1.7 0 0 Z " fill="#FF5000" transform="translate(2,652)"/>
<path d="M0 0 C0.33 0 0.66 0 1 0 C1 1.65 1 3.3 1 5 C0.67 5 0.34 5 0 5 C0 3.35 0 1.7 0 0 Z " fill="#D400F2" transform="translate(2,143)"/>
<path d="M0 0 C0.33 0 0.66 0 1 0 C1 1.65 1 3.3 1 5 C0.67 5 0.34 5 0 5 C0 3.35 0 1.7 0 0 Z " fill="#FF00AE" transform="translate(797,141)"/>
<path d="M0 0 C0.33 0 0.66 0 1 0 C1 1.65 1 3.3 1 5 C0.67 5 0.34 5 0 5 C0 3.35 0 1.7 0 0 Z " fill="#E500E5" transform="translate(3,138)"/>
<path d="M0 0 C0.33 0 0.66 0 1 0 C1 1.65 1 3.3 1 5 C0.67 5 0.34 5 0 5 C0 3.35 0 1.7 0 0 Z " fill="#A500CC" transform="translate(4,133)"/>
<path d="M0 0 C1.65 0 3.3 0 5 0 C5 0.33 5 0.66 5 1 C3.35 1 1.7 1 0 1 C0 0.67 0 0.34 0 0 Z " fill="#FF00B2" transform="translate(662,4)"/>
<path d="M0 0 C1.65 0 3.3 0 5 0 C5 0.33 5 0.66 5 1 C3.35 1 1.7 1 0 1 C0 0.67 0 0.34 0 0 Z " fill="#FF00D4" transform="translate(657,3)"/>
<path d="M0 0 C1.65 0 3.3 0 5 0 C5 0.33 5 0.66 5 1 C3.35 1 1.7 1 0 1 C0 0.67 0 0.34 0 0 Z " fill="#FF00D4" transform="translate(652,2)"/>
<path d="M0 0 C1.65 0 3.3 0 5 0 C5 0.33 5 0.66 5 1 C3.35 1 1.7 1 0 1 C0 0.67 0 0.34 0 0 Z " fill="#6E00FF" transform="translate(143,2)"/>
<path d="M0 0 C4 1 4 1 4 1 Z " fill="#FF3A3A" transform="translate(657,796)"/>
<path d="M0 0 C4 1 4 1 4 1 Z " fill="#FFAF00" transform="translate(135,795)"/>
<path d="M0 0 C4 1 4 1 4 1 Z " fill="#FF4425" transform="translate(666,794)"/>
<path d="M0 0 C4 1 4 1 4 1 Z " fill="#FF7F00" transform="translate(130,794)"/>
<path d="M0 0 C4 1 4 1 4 1 Z " fill="#FF4F2F" transform="translate(670,793)"/>
<path d="M0 0 C1 4 1 4 1 4 Z " fill="#FF007F" transform="translate(792,675)"/>
<path d="M0 0 C1 4 1 4 1 4 Z " fill="#FF5F00" transform="translate(7,674)"/>
<path d="M0 0 C1 4 1 4 1 4 Z " fill="#FF00A9" transform="translate(794,668)"/>
<path d="M0 0 C1 4 1 4 1 4 Z " fill="#FF6A00" transform="translate(5,667)"/>
<path d="M0 0 C1 4 1 4 1 4 Z " fill="#FF00A9" transform="translate(795,664)"/>
<path d="M0 0 C1 4 1 4 1 4 Z " fill="#FF5400" transform="translate(3,658)"/>
<path d="M0 0 C1 4 1 4 1 4 Z " fill="#FF00C4" transform="translate(796,136)"/>
<path d="M0 0 C1 4 1 4 1 4 Z " fill="#FF00B9" transform="translate(795,132)"/>
<path d="M0 0 C1 4 1 4 1 4 Z " fill="#9A00EF" transform="translate(5,129)"/>
<path d="M0 0 C1 4 1 4 1 4 Z " fill="#FF009A" transform="translate(794,128)"/>
<path d="M0 0 C1 4 1 4 1 4 Z " fill="#FF008F" transform="translate(793,124)"/>
<path d="M0 0 C1 4 1 4 1 4 Z " fill="#8F00FF" transform="translate(7,122)"/>
<path d="M0 0 C4 1 4 1 4 1 Z " fill="#FF00D9" transform="translate(674,7)"/>
<path d="M0 0 C4 1 4 1 4 1 Z " fill="#FF009A" transform="translate(667,5)"/>
<path d="M0 0 C4 1 4 1 4 1 Z " fill="#A900FF" transform="translate(129,5)"/>
<path d="M0 0 C4 1 4 1 4 1 Z " fill="#9F00FF" transform="translate(133,4)"/>
<path d="M0 0 C4 1 4 1 4 1 Z " fill="#7F00FF" transform="translate(138,3)"/>
<path d="M0 0 C3 1 3 1 3 1 Z " fill="#FFBF00" transform="translate(127,793)"/>
<path d="M0 0 C3 1 3 1 3 1 Z " fill="#FF3115" transform="translate(674,792)"/>
<path d="M0 0 C3 1 3 1 3 1 Z " fill="#FF153F" transform="translate(677,791)"/>
<path d="M0 0 C3 1 3 1 3 1 Z " fill="#FFA200" transform="translate(120,791)"/>
<path d="M0 0 C3 1 3 1 3 1 Z " fill="#FFBF00" transform="translate(117,790)"/>
<path d="M0 0 C3 1 3 1 3 1 Z " fill="#D4BF00" transform="translate(114,789)"/>
<path d="M0 0 C3 1 3 1 3 1 Z " fill="#FF153F" transform="translate(686,788)"/>
<path d="M0 0 C3 1 3 1 3 1 Z " fill="#FF7100" transform="translate(111,788)"/>
<path d="" fill="#FF0063" transform="translate(0,0)"/>
<path d="" fill="#FF8D00" transform="translate(0,0)"/>
<path d="" fill="#FF00B8" transform="translate(0,0)"/>
<path d="" fill="#FF8D00" transform="translate(0,0)"/>
<path d="" fill="#FF008D" transform="translate(0,0)"/>
<path d="" fill="#FF5400" transform="translate(0,0)"/>
<path d="" fill="#FF008D" transform="translate(0,0)"/>
<path d="" fill="#FF4600" transform="translate(0,0)"/>
<path d="" fill="#C600FF" transform="translate(0,0)"/>
<path d="" fill="#FF00C6" transform="translate(0,0)"/>
<path d="" fill="#C600FF" transform="translate(0,0)"/>
<path d="" fill="#FF00C6" transform="translate(0,0)"/>
<path d="" fill="#C600FF" transform="translate(0,0)"/>
<path d="" fill="#FF0071" transform="translate(0,0)"/>
<path d="" fill="#7100FF" transform="translate(0,0)"/>
<path d="" fill="#E200FF" transform="translate(0,0)"/>
<path d="" fill="#6300FF" transform="translate(0,0)"/>
<path d="M0 0 C3 1 3 1 3 1 Z " fill="#FF00E9" transform="translate(689,12)"/>
<path d="M0 0 C3 1 3 1 3 1 Z " fill="#5400FF" transform="translate(108,12)"/>
<path d="M0 0 C3 1 3 1 3 1 Z " fill="#FF00FF" transform="translate(684,10)"/>
<path d="M0 0 C3 1 3 1 3 1 Z " fill="#FF00FF" transform="translate(681,9)"/>
<path d="M0 0 C3 1 3 1 3 1 Z " fill="#4600FF" transform="translate(116,9)"/>
<path d="M0 0 C3 1 3 1 3 1 Z " fill="#E900E9" transform="translate(678,8)"/>
<path d="M0 0 C3 1 3 1 3 1 Z " fill="#9B00FF" transform="translate(119,8)"/>
<path d="M0 0 C3 1 3 1 3 1 Z " fill="#FF00BF" transform="translate(671,6)"/>
<path d="M0 0 C3 1 3 1 3 1 Z " fill="#9B00FF" transform="translate(126,6)"/>
<path d="M0 0 C2 1 2 1 2 1 Z " fill="#FF5555" transform="translate(689,787)"/>
<path d="M0 0 C2 1 2 1 2 1 Z " fill="#FF9F00" transform="translate(109,787)"/>
<path d="M0 0 C2 1 2 1 2 1 Z " fill="#FF2A2A" transform="translate(694,785)"/>
<path d="M0 0 C2 1 2 1 2 1 Z " fill="#FFD400" transform="translate(90,778)"/>
<path d="M0 0 C2 1 2 1 2 1 Z " fill="#FF7F00" transform="translate(83,774)"/>
<path d="" fill="#FFFF00" transform="translate(0,0)"/>
<path d="" fill="#FF00AA" transform="translate(0,0)"/>
<path d="" fill="#FF5500" transform="translate(0,0)"/>
<path d="" fill="#FF00BF" transform="translate(0,0)"/>
<path d="" fill="#FF5500" transform="translate(0,0)"/>
<path d="" fill="#FF00D4" transform="translate(0,0)"/>
<path d="" fill="#FFBF00" transform="translate(0,0)"/>
<path d="" fill="#FF00BF" transform="translate(0,0)"/>
<path d="" fill="#FF7F00" transform="translate(0,0)"/>
<path d="" fill="#FF00D4" transform="translate(0,0)"/>
<path d="" fill="#FFD400" transform="translate(0,0)"/>
<path d="" fill="#FF0055" transform="translate(0,0)"/>
<path d="" fill="#FF007F" transform="translate(0,0)"/>
<path d="" fill="#FFD400" transform="translate(0,0)"/>
<path d="" fill="#DF003F" transform="translate(0,0)"/>
<path d="" fill="#FF7F00" transform="translate(0,0)"/>
<path d="" fill="#FF00D4" transform="translate(0,0)"/>
<path d="" fill="#FF0094" transform="translate(0,0)"/>
<path d="" fill="#FF007F" transform="translate(0,0)"/>
<path d="" fill="#FF5500" transform="translate(0,0)"/>
<path d="" fill="#FF007F" transform="translate(0,0)"/>
<path d="" fill="#FF5500" transform="translate(0,0)"/>
<path d="" fill="#FF007F" transform="translate(0,0)"/>
<path d="" fill="#FF5500" transform="translate(0,0)"/>
<path d="" fill="#FF0094" transform="translate(0,0)"/>
<path d="" fill="#FFAA00" transform="translate(0,0)"/>
<path d="" fill="#FF0094" transform="translate(0,0)"/>
<path d="" fill="#D47F00" transform="translate(0,0)"/>
<path d="" fill="#FF00D4" transform="translate(0,0)"/>
<path d="" fill="#FF9400" transform="translate(0,0)"/>
<path d="" fill="#FF007F" transform="translate(0,0)"/>
<path d="" fill="#FF9400" transform="translate(0,0)"/>
<path d="" fill="#FF007F" transform="translate(0,0)"/>
<path d="" fill="#FF7F00" transform="translate(0,0)"/>
<path d="" fill="#DF007F" transform="translate(0,0)"/>
<path d="" fill="#FF9400" transform="translate(0,0)"/>
<path d="" fill="#FF00FF" transform="translate(0,0)"/>
<path d="" fill="#7F00DF" transform="translate(0,0)"/>
<path d="" fill="#FF00FF" transform="translate(0,0)"/>
<path d="" fill="#FF00AA" transform="translate(0,0)"/>
<path d="" fill="#9400FF" transform="translate(0,0)"/>
<path d="" fill="#FF00D4" transform="translate(0,0)"/>
<path d="" fill="#FF0094" transform="translate(0,0)"/>
<path d="" fill="#FF00D4" transform="translate(0,0)"/>
<path d="" fill="#BF00DF" transform="translate(0,0)"/>
<path d="" fill="#FF0094" transform="translate(0,0)"/>
<path d="" fill="#9400BF" transform="translate(0,0)"/>
<path d="" fill="#FF00D4" transform="translate(0,0)"/>
<path d="" fill="#9400FF" transform="translate(0,0)"/>
<path d="" fill="#9400FF" transform="translate(0,0)"/>
<path d="" fill="#9400FF" transform="translate(0,0)"/>
<path d="" fill="#FF00D4" transform="translate(0,0)"/>
<path d="" fill="#9400BF" transform="translate(0,0)"/>
<path d="" fill="#FF00BF" transform="translate(0,0)"/>
<path d="" fill="#D400FF" transform="translate(0,0)"/>
<path d="" fill="#FF0094" transform="translate(0,0)"/>
<path d="" fill="#3F00DF" transform="translate(0,0)"/>
<path d="" fill="#FF00FF" transform="translate(0,0)"/>
<path d="" fill="#7F00FF" transform="translate(0,0)"/>
<path d="" fill="#FF00FF" transform="translate(0,0)"/>
<path d="" fill="#5500FF" transform="translate(0,0)"/>
<path d="" fill="#FF00FF" transform="translate(0,0)"/>
<path d="" fill="#D400FF" transform="translate(0,0)"/>
<path d="" fill="#FF00D4" transform="translate(0,0)"/>
<path d="" fill="#D400D4" transform="translate(0,0)"/>
<path d="" fill="#FF00D4" transform="translate(0,0)"/>
<path d="" fill="#D400FF" transform="translate(0,0)"/>
<path d="" fill="#FF005F" transform="translate(0,0)"/>
<path d="" fill="#BF00FF" transform="translate(0,0)"/>
<path d="" fill="#AA00FF" transform="translate(0,0)"/>
<path d="" fill="#FF00FF" transform="translate(0,0)"/>
<path d="M0 0 C2 1 2 1 2 1 Z " fill="#FF00FF" transform="translate(722,29)"/>
<path d="M0 0 C2 1 2 1 2 1 Z " fill="#FF00AA" transform="translate(714,24)"/>
<path d="M0 0 C2 1 2 1 2 1 Z " fill="#FF00D4" transform="translate(705,19)"/>
<path d="M0 0 C2 1 2 1 2 1 Z " fill="#7F00FF" transform="translate(104,14)"/>
<path d="M0 0 C2 1 2 1 2 1 Z " fill="#FF00D4" transform="translate(692,13)"/>
<path d="M0 0 C2 1 2 1 2 1 Z " fill="#7F00FF" transform="translate(106,13)"/>
<path d="M0 0 C2 1 2 1 2 1 Z " fill="#FF00B4" transform="translate(687,11)"/>
<path d="M0 0 C2 1 2 1 2 1 Z " fill="#7F00FF" transform="translate(111,11)"/>
<path d="" fill="#FFAA00" transform="translate(0,0)"/>
<path d="" fill="#FF007F" transform="translate(0,0)"/>
<path d="" fill="#FFAA00" transform="translate(0,0)"/>
<path d="" fill="#FF7F00" transform="translate(0,0)"/>
<path d="" fill="#FF00AA" transform="translate(0,0)"/>
<path d="" fill="#FF007F" transform="translate(0,0)"/>
<path d="" fill="#FF5500" transform="translate(0,0)"/>
<path d="" fill="#FF7F00" transform="translate(0,0)"/>
<path d="" fill="#FF7F00" transform="translate(0,0)"/>
<path d="" fill="#FF7F00" transform="translate(0,0)"/>
<path d="" fill="#FF0055" transform="translate(0,0)"/>
<path d="" fill="#FF00AA" transform="translate(0,0)"/>
<path d="" fill="#FF007F" transform="translate(0,0)"/>
<path d="" fill="#FF007F" transform="translate(0,0)"/>
<path d="" fill="#FF007F" transform="translate(0,0)"/>
<path d="" fill="#FF007F" transform="translate(0,0)"/>
<path d="" fill="#FF7F00" transform="translate(0,0)"/>
<path d="" fill="#FF007F" transform="translate(0,0)"/>
<path d="" fill="#FF7F00" transform="translate(0,0)"/>
<path d="" fill="#FF007F" transform="translate(0,0)"/>
<path d="" fill="#FF7F00" transform="translate(0,0)"/>
<path d="" fill="#FF007F" transform="translate(0,0)"/>
<path d="" fill="#FF007F" transform="translate(0,0)"/>
<path d="" fill="#BF007F" transform="translate(0,0)"/>
<path d="" fill="#FF00AA" transform="translate(0,0)"/>
<path d="" fill="#FF007F" transform="translate(0,0)"/>
<path d="" fill="#FF7F00" transform="translate(0,0)"/>
<path d="" fill="#FF7F00" transform="translate(0,0)"/>
<path d="" fill="#FF7F00" transform="translate(0,0)"/>
<path d="" fill="#FF007F" transform="translate(0,0)"/>
<path d="" fill="#FFAA00" transform="translate(0,0)"/>
<path d="" fill="#FF007F" transform="translate(0,0)"/>
<path d="" fill="#FF7F00" transform="translate(0,0)"/>
<path d="" fill="#FF00AA" transform="translate(0,0)"/>
<path d="" fill="#FF007F" transform="translate(0,0)"/>
<path d="" fill="#FF7F00" transform="translate(0,0)"/>
<path d="" fill="#FF7F00" transform="translate(0,0)"/>
<path d="" fill="#FF007F" transform="translate(0,0)"/>
<path d="" fill="#FF5500" transform="translate(0,0)"/>
<path d="" fill="#FF00AA" transform="translate(0,0)"/>
<path d="" fill="#FF7F00" transform="translate(0,0)"/>
<path d="" fill="#FF007F" transform="translate(0,0)"/>
<path d="" fill="#FF5500" transform="translate(0,0)"/>
<path d="" fill="#FF0055" transform="translate(0,0)"/>
<path d="" fill="#FFAA00" transform="translate(0,0)"/>
<path d="" fill="#FF00AA" transform="translate(0,0)"/>
<path d="" fill="#FFAA00" transform="translate(0,0)"/>
<path d="" fill="#FF00AA" transform="translate(0,0)"/>
<path d="" fill="#FFAA00" transform="translate(0,0)"/>
<path d="" fill="#FF00AA" transform="translate(0,0)"/>
<path d="" fill="#FF5500" transform="translate(0,0)"/>
<path d="" fill="#FFAA00" transform="translate(0,0)"/>
<path d="" fill="#FF00AA" transform="translate(0,0)"/>
<path d="" fill="#FF5500" transform="translate(0,0)"/>
<path d="" fill="#FF5500" transform="translate(0,0)"/>
<path d="" fill="#FF00AA" transform="translate(0,0)"/>
<path d="" fill="#FF00AA" transform="translate(0,0)"/>
<path d="" fill="#AA00FF" transform="translate(0,0)"/>
<path d="" fill="#FF00AA" transform="translate(0,0)"/>
<path d="" fill="#AA00FF" transform="translate(0,0)"/>
<path d="" fill="#FF00AA" transform="translate(0,0)"/>
<path d="" fill="#AA00FF" transform="translate(0,0)"/>
<path d="" fill="#FF00AA" transform="translate(0,0)"/>
<path d="" fill="#AA00FF" transform="translate(0,0)"/>
<path d="" fill="#FF00AA" transform="translate(0,0)"/>
<path d="" fill="#AA00AA" transform="translate(0,0)"/>
<path d="" fill="#7F00FF" transform="translate(0,0)"/>
<path d="" fill="#FF007F" transform="translate(0,0)"/>
<path d="" fill="#FF00FF" transform="translate(0,0)"/>
<path d="" fill="#AA00FF" transform="translate(0,0)"/>
<path d="" fill="#7F00FF" transform="translate(0,0)"/>
<path d="" fill="#FF00AA" transform="translate(0,0)"/>
<path d="" fill="#FF00BF" transform="translate(0,0)"/>
<path d="" fill="#7F00FF" transform="translate(0,0)"/>
<path d="" fill="#FF00BF" transform="translate(0,0)"/>
<path d="" fill="#AA00FF" transform="translate(0,0)"/>
<path d="" fill="#7F00FF" transform="translate(0,0)"/>
<path d="" fill="#7F00FF" transform="translate(0,0)"/>
<path d="" fill="#FF007F" transform="translate(0,0)"/>
<path d="" fill="#FF00AA" transform="translate(0,0)"/>
<path d="" fill="#FF00FF" transform="translate(0,0)"/>
<path d="" fill="#FF00BF" transform="translate(0,0)"/>
<path d="" fill="#7F00FF" transform="translate(0,0)"/>
<path d="" fill="#FF00BF" transform="translate(0,0)"/>
<path d="" fill="#AA00FF" transform="translate(0,0)"/>
<path d="" fill="#FF00BF" transform="translate(0,0)"/>
<path d="" fill="#AA00FF" transform="translate(0,0)"/>
<path d="" fill="#FF00BF" transform="translate(0,0)"/>
<path d="" fill="#7F00FF" transform="translate(0,0)"/>
<path d="" fill="#FF00BF" transform="translate(0,0)"/>
<path d="" fill="#AA00FF" transform="translate(0,0)"/>
<path d="" fill="#FF00BF" transform="translate(0,0)"/>
<path d="" fill="#7F00FF" transform="translate(0,0)"/>
<path d="" fill="#FF00BF" transform="translate(0,0)"/>
<path d="" fill="#7F00FF" transform="translate(0,0)"/>
<path d="" fill="#FF00BF" transform="translate(0,0)"/>
<path d="" fill="#7F00FF" transform="translate(0,0)"/>
<path d="" fill="#FF00BF" transform="translate(0,0)"/>
<path d="" fill="#7F00FF" transform="translate(0,0)"/>
<path d="" fill="#FF00BF" transform="translate(0,0)"/>
<path d="" fill="#7F00FF" transform="translate(0,0)"/>
<path d="" fill="#FF00BF" transform="translate(0,0)"/>
<path d="" fill="#AA00FF" transform="translate(0,0)"/>
<path d="" fill="#FF00BF" transform="translate(0,0)"/>
<path d="" fill="#AA00FF" transform="translate(0,0)"/>
<path d="" fill="#FF00BF" transform="translate(0,0)"/>
<path d="" fill="#AA00FF" transform="translate(0,0)"/>
<path d="" fill="#FF00AA" transform="translate(0,0)"/>
<path d="" fill="#7F00FF" transform="translate(0,0)"/>
<path d="" fill="#FF00FF" transform="translate(0,0)"/>
<path d="" fill="#7F00FF" transform="translate(0,0)"/>
<path d="" fill="#FF00BF" transform="translate(0,0)"/>
<path d="" fill="#AA00FF" transform="translate(0,0)"/>
<path d="" fill="#FF00FF" transform="translate(0,0)"/>
<path d="" fill="#AA00FF" transform="translate(0,0)"/>
<path d="" fill="#FF00FF" transform="translate(0,0)"/>
</svg>
