<?xml version="1.0" encoding="UTF-8"?>
<svg version="1.1" xmlns="http://www.w3.org/2000/svg" width="512" height="512">
<path d="M0 0 C3.490181 0.00457581 6.98034296 -0.00248436 10.47052002 -0.00795984 C17.2863454 -0.01680142 24.10212645 -0.01495536 30.91795349 -0.00913456 C36.46282308 -0.00459731 42.00768035 -0.00401404 47.55255127 -0.00618219 C48.74132622 -0.00664189 48.74132622 -0.00664189 49.95411682 -0.00711088 C51.56465658 -0.0077504 53.17519633 -0.00839883 54.78573608 -0.00905606 C69.84848971 -0.01474402 84.91121889 -0.00822564 99.97396851 0.00254467 C112.86736249 0.01147878 125.76072044 0.00992631 138.65411377 0.00070715 C153.66705924 -0.01002269 168.67998336 -0.01419484 183.69293213 -0.00806832 C185.29718017 -0.0074313 186.90142822 -0.00680256 188.50567627 -0.00618219 C189.29476883 -0.00587364 190.08386139 -0.00556509 190.89686584 -0.00524719 C196.42793292 -0.00352838 201.95898632 -0.0064177 207.49005127 -0.0111413 C214.24078566 -0.0167804 220.99147361 -0.01517054 227.74220276 -0.00457981 C231.17917432 0.00063646 234.61606876 0.0028037 238.05303955 -0.00387812 C266.76747256 -0.04621333 291.27529911 1.45348952 313.15020752 22.28098059 C323.97045577 33.64962349 332.13931859 49.79408165 332.16054153 65.68455362 C332.16438268 66.76696111 332.16822382 67.84936859 332.17218137 68.9645763 C332.17131489 70.14802063 332.1704484 71.33146496 332.16955566 72.55077124 C332.17401235 74.44333109 332.17401235 74.44333109 332.17855906 76.37412447 C332.1866165 79.87415233 332.18841794 83.37415966 332.18915653 86.87419569 C332.19100932 90.65011097 332.19855788 94.42601566 332.20529175 98.2019248 C332.21886752 106.45836801 332.22489885 114.71480636 332.22930241 122.97125888 C332.23206658 128.1291721 332.2363043 133.28708345 332.24080658 138.4449954 C332.25299916 152.73243005 332.26329791 167.01986321 332.26668167 181.30730295 C332.26690124 182.22156809 332.2671208 183.13583323 332.26734702 184.07780337 C332.2675653 184.99423123 332.26778358 185.9106591 332.26800847 186.8548575 C332.26845193 188.71182366 332.2688985 190.56878982 332.26934814 192.42575598 C332.26956957 193.34687132 332.269791 194.26798667 332.27001914 195.2170146 C332.27396487 210.13335561 332.29141206 225.04964769 332.31470767 239.96596981 C332.33844498 255.28915614 332.35088464 270.61231796 332.35204959 285.93552297 C332.35296511 294.53530204 332.35868618 303.1350174 332.3768692 311.73477888 C332.39230246 319.05975402 332.39737174 326.38464576 332.3891311 333.70963407 C332.38523574 337.44378466 332.38609929 341.17776746 332.40018845 344.91189718 C332.41535597 348.96913205 332.40702781 353.02599213 332.39660645 357.08324194 C332.40869105 358.83498585 332.40869105 358.83498585 332.42101979 360.62211853 C332.35776005 371.18800966 330.28852454 380.92313973 325.40411377 390.32394934 C324.8836145 391.33727331 324.8836145 391.33727331 324.3526001 392.37106848 C317.17919402 405.85425189 306.60867508 415.69333865 293.09161377 422.63644934 C292.47213867 422.95831213 291.85266357 423.28017492 291.2144165 423.61179113 C281.17865653 428.48718731 270.94690995 429.70622164 259.91146851 429.64912939 C258.01205389 429.6572077 258.01205389 429.6572077 256.07426727 429.6654492 C252.59384469 429.67978979 249.11366119 429.67569522 245.63322616 429.66828239 C241.86624087 429.66352451 238.09930539 429.67608357 234.33233643 429.6862998 C226.96583851 429.70344214 219.59942606 429.70433733 212.23291339 429.6990869 C206.2417015 429.69503541 200.25051475 429.69650034 194.25930405 429.70183516 C192.97726307 429.70295779 192.97726307 429.70295779 191.66932227 429.7041031 C189.93267092 429.70563468 188.19601956 429.70717302 186.45936821 429.70871807 C170.19586933 429.72242661 153.93241863 429.71701702 137.66892086 429.70553286 C122.81254942 429.69560232 107.95630256 429.70854097 93.09995033 429.73246705 C77.8194622 429.75688946 62.53903202 429.7664582 47.25852478 429.75981432 C38.69007549 429.75632906 30.12172196 429.75850822 21.55328751 429.77606535 C14.25924938 429.7908267 6.96537446 429.79137162 -0.32866059 429.77399444 C-4.04491958 429.76551426 -7.76088751 429.76326109 -11.47713089 429.77864599 C-15.51807822 429.79516707 -19.55833093 429.78027275 -23.59927368 429.76265478 C-24.75650244 429.77225979 -25.91373119 429.78186479 -27.10602748 429.79176086 C-45.50755081 429.62762974 -62.76278832 421.95839795 -75.97088623 409.26144934 C-81.54308642 403.55312048 -85.71858692 397.38568714 -89.34588623 390.32394934 C-89.66774902 389.70447424 -89.98961182 389.08499914 -90.32122803 388.44675207 C-95.19547333 378.41336112 -96.41567902 368.18345186 -96.35856628 357.1505332 C-96.36395182 355.88496236 -96.36933736 354.61939151 -96.3748861 353.31547004 C-96.38922665 349.83697803 -96.38513211 346.35872524 -96.37771928 342.88022077 C-96.37296135 339.11526136 -96.38552058 335.35035178 -96.39573669 331.58540869 C-96.41287943 324.22258577 -96.41377407 316.85984836 -96.40852379 309.49701067 C-96.40447207 303.50819105 -96.40593752 297.51939657 -96.41127205 291.53057814 C-96.41202047 290.67617287 -96.41276889 289.82176761 -96.41353999 288.94147128 C-96.41507157 287.20538565 -96.41660992 285.46930003 -96.41815496 283.73321442 C-96.43186386 267.47445416 -96.42645386 251.21574209 -96.41496975 234.95698295 C-96.40504108 220.10775356 -96.41797458 205.25864885 -96.44190394 190.40943869 C-96.4663323 175.13459579 -96.47589352 159.85981087 -96.46925122 144.58494884 C-96.46576703 136.02038005 -96.46793787 127.45590707 -96.48550224 118.89135313 C-96.50027114 111.59990543 -96.50079886 104.30862101 -96.48343133 97.01717635 C-96.47495694 93.30281871 -96.4726835 89.58875212 -96.48808289 85.87441015 C-96.58839626 59.76295565 -93.77477797 39.87948312 -74.95526123 20.14816809 C-53.91311398 0.08019432 -27.31420804 -0.05310159 0 0 Z " fill="#000000" transform="translate(137.97088623046875,41.738550662994385)"/>
<path d="M0 0 C19.14 0 38.28 0 58 0 C58.99 8.91 58.99 8.91 60 18 C65.28905017 37.13391681 74.1821076 54.43529627 91.30078125 65.48046875 C104.76503044 73.06019803 118.81104249 76.10138031 134 78 C134 96.48 134 114.96 134 134 C105.67515676 134 79.7349349 126.14604209 57 109 C57.00691345 109.9632455 57.00691345 109.9632455 57.01396656 110.94595051 C57.12496824 126.65823163 57.20740796 142.37037411 57.25906086 158.08295155 C57.28471147 165.68182883 57.31960609 173.28044248 57.37719727 180.87915039 C57.42743962 187.51146907 57.45938617 194.1435966 57.47044247 200.77610034 C57.47689324 204.27965832 57.49176907 207.78267006 57.52865028 211.2860508 C57.73569459 231.7553733 56.01262858 249.35037399 47 268 C46.57203125 268.89589844 46.1440625 269.79179687 45.703125 270.71484375 C32.5811281 296.40594442 10.28914519 312.25845444 -16.2578125 321.95703125 C-25.86347353 324.63418312 -35.31005937 325.36235282 -45.25 325.3125 C-46.43440674 325.30686035 -47.61881348 325.3012207 -48.83911133 325.29541016 C-76.80077556 324.90925741 -100.49794291 313.87320724 -120.6875 294.75 C-142.236864 272.17447581 -149.64409372 244.43885048 -149.08007812 213.93652344 C-148.33978518 186.78943939 -134.11463501 163.21394755 -115.0078125 144.7578125 C-110.98991091 140.99501577 -106.67407714 137.89892992 -102 135 C-101.06542969 134.40574219 -100.13085938 133.81148437 -99.16796875 133.19921875 C-77.7785679 120.10767196 -58.12544372 119 -33 119 C-33 138.47 -33 157.94 -33 178 C-40.59 178 -48.18 178 -56 178 C-68.19573116 180.92697548 -78.37448576 188.27871332 -85 199 C-85.50660156 199.81339844 -86.01320312 200.62679687 -86.53515625 201.46484375 C-91.90772165 211.89570192 -91.80383441 225.55536139 -89.078125 236.8046875 C-84.22432569 249.19133118 -75.45824875 258.17093696 -63.58984375 263.95703125 C-52.90101975 268.26158028 -40.9004888 268.83602776 -30 264.9375 C-17.9330758 259.58110971 -9.34656581 250.92532321 -4.04296875 238.90625 C-1.53528874 231.91855739 -0.70502839 225.74865683 -0.7215271 218.38220215 C-0.7128385 216.97537414 -0.7128385 216.97537414 -0.70397437 215.54012537 C-0.68704088 212.41408465 -0.68410359 209.28819217 -0.68115234 206.16210938 C-0.67184959 203.91464885 -0.6616804 201.66719178 -0.65071106 199.41973877 C-0.62343629 193.32950495 -0.60826906 187.23929423 -0.59528303 181.14901543 C-0.57964152 174.78018421 -0.55285452 168.4114001 -0.5272522 162.04260254 C-0.48579467 151.35653949 -0.45119515 140.67047643 -0.421875 129.984375 C-0.39166396 118.9804499 -0.357302 107.9765506 -0.31738281 96.97265625 C-0.31492126 96.29372305 -0.31245972 95.61478984 -0.30992357 94.91528291 C-0.29754848 91.50907949 -0.28509204 88.10287637 -0.27259517 84.69667339 C-0.16912042 56.46448044 -0.08150804 28.23226539 0 0 Z " fill="#FEFEFE" transform="translate(255,87)"/>
<path d="M0 0 C17 1 17 1 18 2 C18.09370624 3.77991924 18.11744271 5.56356739 18.11352539 7.34594727 C18.11344986 8.4870546 18.11337433 9.62816193 18.11329651 10.80384827 C18.10813522 12.0454924 18.10297394 13.28713654 18.09765625 14.56640625 C18.09553383 16.46204567 18.09553383 16.46204567 18.09336853 18.39598083 C18.08870582 21.76124889 18.0797148 25.1264499 18.06866455 28.49169922 C18.05844846 31.9234967 18.05387049 35.35530109 18.04882812 38.78710938 C18.0377738 45.52475824 18.0210171 52.26237525 18 59 C16.42034802 59.01211855 14.84066871 59.02070351 13.26098633 59.02783203 C12.38130692 59.03299835 11.5016275 59.03816467 10.59529114 59.04348755 C-6.94571814 58.74956465 -25.58105785 52.8783402 -41.3125 45.5 C-42.07038818 45.14470215 -42.82827637 44.7894043 -43.60913086 44.42333984 C-47.43869974 42.53692416 -50.86631433 40.4463726 -54.26245117 37.85351562 C-54.96705978 37.31778931 -55.6716684 36.78206299 -56.39762878 36.23010254 C-56.92641129 35.8241687 -57.45519379 35.41823486 -58 35 C-58.00146656 35.59909022 -58.00293312 36.19818045 -58.00444412 36.81542492 C-58.04173825 51.4937847 -58.10104686 66.17194636 -58.18390274 80.85011578 C-58.22346048 87.94882702 -58.25596955 95.04743115 -58.27099609 102.14624023 C-58.28413492 108.34434657 -58.31140373 114.54221488 -58.35461307 120.74018699 C-58.37695817 124.01226451 -58.39081586 127.28399515 -58.39188385 130.55615807 C-58.41584472 167.20020346 -66.40059169 196.78034124 -92.79736328 223.23876953 C-98.61482877 228.84317762 -104.99614651 233.02658254 -112 237 C-113.47919922 237.84498047 -113.47919922 237.84498047 -114.98828125 238.70703125 C-138.04487723 251.0309222 -165.96958775 253.87264393 -191.05419922 246.59423828 C-206.65238437 241.83062691 -225.3696054 233.88277663 -235 220 C-231.33319615 221.39751145 -227.91000187 223.05134596 -224.4375 224.875 C-209.92777283 232.14760164 -195.56446589 234.36090177 -179.4375 234.25 C-178.30892578 234.25773438 -177.18035156 234.26546875 -176.01757812 234.2734375 C-165.61536231 234.24951061 -155.70196564 233.13180177 -146 229.25 C-145.32557861 228.98687012 -144.65115723 228.72374023 -143.95629883 228.45263672 C-116.94388479 217.71164366 -97.17757581 198.77790274 -85.3125 172.3125 C-78.55063677 154.46792168 -77.24545439 138.22795271 -77.29110122 119.22659135 C-77.29427355 115.68984413 -77.26905625 112.15328764 -77.24714661 108.61662292 C-77.21002107 101.95193379 -77.19757753 95.28744849 -77.1945222 88.62266606 C-77.18979671 81.02130628 -77.156763 73.42014641 -77.12162435 65.81887591 C-77.05010071 50.21259809 -77.01323943 34.60644292 -77 19 C-73.71121152 20.58813865 -70.95312171 22.47025131 -68 24.625 C-47.84096147 38.10513377 -23.62877371 41.7496406 0 44 C0 29.48 0 14.96 0 0 Z " fill="#FD0552" transform="translate(389,177)"/>
<path d="M0 0 C19.14 0 38.28 0 58 0 C58.495 6.93 58.495 6.93 59 14 C45.14 14 31.28 14 17 14 C17.0314209 24.31137207 17.0314209 24.31137207 17.06347656 34.83105469 C17.12775237 56.85632944 17.17220235 78.8816119 17.20426132 100.90695594 C17.20926381 104.33136279 17.21444113 107.75576936 17.21972656 111.18017578 C17.2207758 111.86187884 17.22182505 112.5435819 17.22290608 113.24594262 C17.24028479 124.26654125 17.2718084 135.28705595 17.30861118 146.30760488 C17.34609136 157.6258657 17.36795159 168.94406451 17.37635398 180.26239133 C17.381561 186.61546889 17.39376844 192.96835642 17.42292023 199.32137299 C17.45016058 205.30657822 17.45842748 211.29151593 17.45243073 217.27677727 C17.4535271 219.46805464 17.46142923 221.65934137 17.4768219 223.85056496 C17.5960645 241.70802703 15.46141312 256.11661581 2.875 269.75 C-6.43082126 278.63140036 -18.11343984 282.43250762 -30.79736328 282.36352539 C-42.35647306 282.06520012 -52.64008698 277.5609035 -60.73046875 269.21484375 C-61.87728939 267.85600584 -62.95001444 266.43498027 -64 265 C-63.47535156 265.144375 -62.95070312 265.28875 -62.41015625 265.4375 C-49.25824713 268.58870618 -36.09093814 268.52317643 -24 262 C-11.9923732 254.43556232 -4.78749813 244.02235409 -1.42698026 230.2700243 C-0.68326182 226.31607353 -0.71254049 222.39460335 -0.7215271 218.38220215 C-0.7157347 217.44431681 -0.7099423 216.50643147 -0.70397437 215.54012537 C-0.68704088 212.41408465 -0.68410359 209.28819217 -0.68115234 206.16210938 C-0.67184959 203.91464885 -0.6616804 201.66719178 -0.65071106 199.41973877 C-0.62343629 193.32950495 -0.60826906 187.23929423 -0.59528303 181.14901543 C-0.57964152 174.78018421 -0.55285452 168.4114001 -0.5272522 162.04260254 C-0.48579467 151.35653949 -0.45119515 140.67047643 -0.421875 129.984375 C-0.39166396 118.9804499 -0.357302 107.9765506 -0.31738281 96.97265625 C-0.31492126 96.29372305 -0.31245972 95.61478984 -0.30992357 94.91528291 C-0.29754848 91.50907949 -0.28509204 88.10287637 -0.27259517 84.69667339 C-0.16912042 56.46448044 -0.08150804 28.23226539 0 0 Z " fill="#03F5EE" transform="translate(255,87)"/>
<path d="M0 0 C1.16080078 0.00451172 2.32160156 0.00902344 3.51757812 0.01367188 C6.3659078 0.0253934 9.21421074 0.04332677 12.0625 0.0625 C12.0625 4.6825 12.0625 9.3025 12.0625 14.0625 C10.19271484 14.28292969 10.19271484 14.28292969 8.28515625 14.5078125 C-14.50780208 17.4146752 -35.84991929 25.21275978 -52.9375 41.0625 C-53.78699219 41.83207031 -54.63648438 42.60164063 -55.51171875 43.39453125 C-72.02583715 59.04880275 -84.77996763 82.84777565 -86.09863281 105.87646484 C-86.54036741 136.35101582 -80.83648257 160.56745506 -61.9375 185.0625 C-66.04533306 185.0625 -67.72293592 182.92471211 -70.5625 180.25 C-71.09520508 179.75153564 -71.62791016 179.25307129 -72.17675781 178.73950195 C-89.10753434 162.59838822 -103.05133955 138.310302 -104.04541016 114.47509766 C-104.7091097 81.59768832 -97.88433953 54.74901005 -74.60839844 30.45239258 C-69.16920651 24.90238957 -63.56337371 20.17196225 -56.9375 16.0625 C-56.00292969 15.46824219 -55.06835938 14.87398437 -54.10546875 14.26171875 C-37.25066438 3.94560651 -19.58285987 -0.14472836 0 0 Z " fill="#01F3EC" transform="translate(209.9375,205.9375)"/>
<path d="M0 0 C5.61 0 11.22 0 17 0 C18 1 18 1 18.12025452 3.36012268 C18.11803391 4.40603073 18.11581329 5.45193878 18.11352539 6.52954102 C18.11341209 8.30126427 18.11341209 8.30126427 18.11329651 10.10877991 C18.10813522 11.3941716 18.10297394 12.67956329 18.09765625 14.00390625 C18.0962413 15.31205795 18.09482635 16.62020966 18.09336853 17.96800232 C18.0895441 21.45162859 18.07971446 24.93521339 18.06866455 28.41882324 C18.05844882 31.97126708 18.05387056 35.52371759 18.04882812 39.07617188 C18.03809212 46.05079832 18.0210166 53.02539717 18 60 C16.1123291 59.75878418 16.1123291 59.75878418 14.18652344 59.51269531 C-1.96117561 57.44926335 -14.06957078 60.67918402 -26.99609375 70.51953125 C-33.55151626 76.28655106 -38.90978892 86.34398669 -40 95 C-40.81022893 107.87068583 -39.36094473 118.55029949 -33 130 C-43.24506928 126.51192828 -50.46046748 117.166912 -55.11157227 107.74926758 C-57.84222096 101.42886762 -58.67262995 95.98254535 -58.5625 89.125 C-58.55226807 88.16118408 -58.54203613 87.19736816 -58.53149414 86.2043457 C-58.18337175 74.50723616 -54.09962123 65.45815577 -46 57 C-38.48852546 50.07601509 -29.0947852 43.88298871 -18.59375 43.8671875 C-17.35431641 43.86525391 -17.35431641 43.86525391 -16.08984375 43.86328125 C-15.23519531 43.86714844 -14.38054687 43.87101562 -13.5 43.875 C-12.21802734 43.86919922 -12.21802734 43.86919922 -10.91015625 43.86328125 C-10.08386719 43.86457031 -9.25757813 43.86585938 -8.40625 43.8671875 C-7.65666016 43.86831543 -6.90707031 43.86944336 -6.13476562 43.87060547 C-4 44 -4 44 0 45 C0 30.15 0 15.3 0 0 Z " fill="#FB0551" transform="translate(222,220)"/>
<path d="M0 0 C17 1 17 1 18 2 C18.09370624 3.77991924 18.11744271 5.56356739 18.11352539 7.34594727 C18.11341209 9.05760826 18.11341209 9.05760826 18.11329651 10.80384827 C18.10813522 12.0454924 18.10297394 13.28713654 18.09765625 14.56640625 C18.0962413 15.83016586 18.09482635 17.09392548 18.09336853 18.39598083 C18.08870582 21.76124889 18.0797148 25.1264499 18.06866455 28.49169922 C18.05844846 31.9234967 18.05387049 35.35530109 18.04882812 38.78710938 C18.0377738 45.52475824 18.0210171 52.26237525 18 59 C16.42034802 59.01211855 14.84066871 59.02070351 13.26098633 59.02783203 C12.38130692 59.03299835 11.5016275 59.03816467 10.59529114 59.04348755 C-6.94571814 58.74956465 -25.58105785 52.8783402 -41.3125 45.5 C-42.07038818 45.14470215 -42.82827637 44.7894043 -43.60913086 44.42333984 C-49.04891742 41.74374352 -52.99782201 38.7516335 -58 35 C-58.33 74.6 -58.66 114.2 -59 155 C-59.33 155 -59.66 155 -60 155 C-60.04667598 138.99734275 -60.08196719 122.9947075 -60.10362434 106.99199867 C-60.11394644 99.56202548 -60.12802453 92.13209452 -60.15087891 84.70214844 C-60.1707843 78.22784217 -60.18370964 71.75356649 -60.18817699 65.27923048 C-60.19078923 61.84963469 -60.19694832 58.42012642 -60.21146011 54.99055862 C-60.2275111 51.16637759 -60.22798152 47.34228297 -60.22705078 43.51806641 C-60.23424133 42.37511612 -60.24143188 41.23216583 -60.24884033 40.05458069 C-60.246091 39.01689041 -60.24334167 37.97920013 -60.24050903 36.9100647 C-60.24235262 36.00486399 -60.24419621 35.09966328 -60.24609566 34.16703224 C-60 32 -60 32 -58 30 C-57.15179688 30.38671875 -56.30359375 30.7734375 -55.4296875 31.171875 C-44.39070587 36.07269761 -33.33527021 39.51364942 -21.4375 41.6875 C-20.78998779 41.80697998 -20.14247559 41.92645996 -19.4753418 42.04956055 C-12.96130722 43.15920428 -6.67509747 43.48653096 0 44 C0 29.48 0 14.96 0 0 Z " fill="#F10C53" transform="translate(389,177)"/>
<path d="M0 0 C5.28 0 10.56 0 16 0 C16.22042969 1.99546875 16.22042969 1.99546875 16.4453125 4.03125 C18.64385764 22.3155902 23.74793807 36.6219071 34 52 C29.55273236 50.56644853 26.4887618 48.14015758 23.125 45 C22.59688721 44.50725586 22.06877441 44.01451172 21.5246582 43.50683594 C10.86557772 33.30735367 2.90713085 18.53565426 0 4 C0 2.68 0 1.36 0 0 Z " fill="#FA0853" transform="translate(314,101)"/>
<path d="M0 0 C0.68835938 0.27972656 1.37671875 0.55945313 2.0859375 0.84765625 C14.29576886 5.67594077 26.01080865 8.28022547 39 10 C39 13.96 39 17.92 39 22 C24.37715691 18.96843497 8.86224092 12.68847828 0 0 Z " fill="#06F3ED" transform="translate(350,155)"/>
</svg>
