<?xml version="1.0" encoding="UTF-8"?>
<svg version="1.1" xmlns="http://www.w3.org/2000/svg" width="800" height="564">
<path d="M0 0 C6.61512903 0.00754257 13.23019809 0.00481012 19.84532493 -0.00360388 C59.14771252 -0.05224117 98.42729537 0.09570148 137.71690696 1.17510706 C138.46836683 1.19561342 139.2198267 1.21611977 139.99405807 1.23724753 C235.61283591 3.86400476 235.61283591 3.86400476 238.00596946 6.25713831 C239.35840124 6.44618488 240.71956342 6.57344315 242.08140892 6.67437464 C242.95290581 6.74162745 243.82440269 6.80888026 244.72230858 6.87817103 C245.67829948 6.94780054 246.63429039 7.01743006 247.61925071 7.08916956 C249.66054443 7.24701559 251.70180288 7.4053183 253.74303001 7.56402308 C254.81757438 7.64629145 255.89211876 7.72855982 256.99922508 7.81332117 C287.27645696 10.15137542 287.27645696 10.15137542 302.19346946 12.31963831 C303.75158348 12.54453943 303.75158348 12.54453943 305.34117454 12.77398401 C312.65086352 13.90045445 319.81992378 15.51679609 327.00596946 17.25713831 C327.00596946 17.91713831 327.00596946 18.57713831 327.00596946 19.25713831 C327.8399929 19.35123987 328.67401634 19.44534144 329.53331321 19.54229456 C347.54809117 23.25062343 365.51241115 38.89871364 376.19346946 53.31963831 C378.00596946 56.25713831 378.00596946 56.25713831 378.00596946 58.25713831 C378.66596946 58.25713831 379.32596946 58.25713831 380.00596946 58.25713831 C382.3782247 62.89569197 384.71412844 67.54949534 387.00596946 72.22832972 C387.81249037 73.86460625 388.64030347 75.4903781 389.47471946 77.11260706 C398.08779076 95.36017157 399.02372885 117.76217607 401.39464134 137.56890589 C401.49532921 138.40142374 401.59601707 139.2339416 401.69975609 140.09168726 C401.88996167 141.6727287 402.07619456 143.25425438 402.25798362 144.83628565 C402.40389902 148.34566369 402.40389902 148.34566369 404.00596946 151.25713831 C404.29827467 153.98697814 404.53104113 156.69943505 404.72471946 159.43682581 C404.78752098 160.27819086 404.85032249 161.11955591 404.91502708 161.98641688 C405.04825519 163.78369217 405.1792451 165.58113451 405.30821556 167.37872034 C405.50069045 170.05863614 405.69991263 172.73797527 405.90050071 175.41729456 C406.02982002 177.17377462 406.15873677 178.93028436 406.28721946 180.68682581 C406.34454246 181.46057551 406.40186546 182.2343252 406.46092552 183.03152186 C406.65633885 185.77261332 406.83173804 188.51461656 407.00596946 191.25713831 C407.09183311 192.50088221 407.17769676 193.7446261 407.26616234 195.02605921 C408.22631092 209.97615105 408.18762869 224.94131424 408.2061581 239.91555792 C408.20913346 242.20906969 408.21324595 244.50257695 408.21766227 246.79608637 C408.23129343 254.05604551 408.24097466 261.31599373 408.24486417 268.57596475 C408.24886124 275.98553476 408.26100712 283.39497507 408.28721946 290.80450159 C408.41385863 327.37131234 408.30755608 363.74292801 405.17734092 400.20997339 C405.01337298 402.16869757 404.86698044 404.12886916 404.72142357 406.08904749 C404.63904442 407.18833582 404.55666527 408.28762415 404.47178978 409.42022425 C404.40453697 410.34542872 404.33728416 411.27063318 404.26799339 412.22387415 C404.00596946 414.25713831 404.00596946 414.25713831 403.00596946 415.25713831 C402.63144707 417.79431205 402.31250623 420.3190127 402.02550071 422.86651331 C401.83244881 424.49281897 401.63865071 426.11903619 401.44420189 427.74517542 C401.34239616 428.60448664 401.24059044 429.46379786 401.13569969 430.34914881 C399.00121427 448.23344669 396.0567867 465.70079993 392.00596946 483.25713831 C391.34596946 483.25713831 390.68596946 483.25713831 390.00596946 483.25713831 C389.92346946 484.07698206 389.84096946 484.89682581 389.75596946 485.74151331 C388.82699665 490.0960734 387.06035096 493.58513728 385.00596946 497.50713831 C384.45296165 498.58608362 384.45296165 498.58608362 383.88878196 499.68682581 C382.93433948 501.54694364 381.97077845 503.40237622 381.00596946 505.25713831 C380.67596946 505.91713831 380.34596946 506.57713831 380.00596946 507.25713831 C379.34596946 507.25713831 378.68596946 507.25713831 378.00596946 507.25713831 C377.7674929 507.96354456 377.52901634 508.66995081 377.28331321 509.39776331 C369.12469768 527.66108617 346.88068365 540.23592114 329.23643821 547.37823206 C314.01466174 552.61517524 297.1786466 554.14275721 281.22398704 555.66192347 C277.82197429 555.72087149 277.82197429 555.72087149 275.00596946 557.25713831 C269.84236993 557.91523952 264.63350739 558.23712675 259.44346946 558.63213831 C258.6150756 558.69616846 257.78668175 558.76019861 256.93318504 558.82616907 C239.16314125 560.18119468 221.3690618 561.05211451 203.56846946 561.88213831 C202.90158481 561.91347613 202.23470016 561.94481394 201.54760689 561.97710139 C192.3577581 562.40880681 183.16684919 562.80261056 173.97447401 563.17616326 C172.21012175 563.24874044 170.44589389 563.32432723 168.68168491 563.40030771 C140.97719488 564.5692364 113.25468791 564.42177964 85.53111142 564.42439538 C81.30924849 564.42489696 77.0873877 564.42720466 72.86552566 564.4298926 C58.78955763 564.4386653 44.71359709 564.44331802 30.6376263 564.44256213 C29.8851146 564.44252217 29.13260291 564.44248221 28.35728782 564.44244105 C27.60380388 564.44240017 26.85031994 564.44235928 26.07400315 564.44231717 C13.93482873 564.44191299 1.79568565 564.45143366 -10.34347975 564.46557941 C-22.9545786 564.48015308 -35.56566241 564.48683816 -48.17676985 564.48598564 C-55.19751951 564.48566046 -62.21823612 564.48815168 -69.23897797 564.49916369 C-114.88489768 564.56735852 -160.47289759 563.62410074 -206.04700905 560.93438441 C-209.1884717 560.74936762 -212.33042317 560.57508377 -215.47254616 560.40166956 C-226.15492498 559.80018312 -236.82501148 559.08191095 -247.49012429 558.22588831 C-249.05054199 558.10413233 -249.05054199 558.10413233 -250.64248329 557.97991663 C-251.59308129 557.90059901 -252.54367928 557.82128138 -253.52308327 557.73956019 C-254.78534989 557.6360525 -254.78534989 557.6360525 -256.07311684 557.53045374 C-257.99403054 557.25713831 -257.99403054 557.25713831 -258.99403054 556.25713831 C-261.14243647 555.93299019 -263.2996823 555.66720217 -265.45887429 555.42510706 C-266.8220497 555.26739519 -268.18516602 555.10917189 -269.54822975 554.95049769 C-270.2646061 554.86823939 -270.98098244 554.78598109 -271.71906716 554.70123011 C-305.73088574 550.7566886 -305.73088574 550.7566886 -318.99403054 544.25713831 C-320.17610085 543.67963831 -321.35817116 543.10213831 -322.57606179 542.50713831 C-330.46274854 538.53303408 -337.31817059 534.0896067 -343.99403054 528.25713831 C-344.67723366 527.71702112 -345.36043679 527.17690394 -346.06434304 526.62041956 C-352.08991452 521.74088814 -356.75713401 515.72036704 -360.99403054 509.25713831 C-360.99403054 508.59713831 -360.99403054 507.93713831 -360.99403054 507.25713831 C-361.65403054 507.25713831 -362.31403054 507.25713831 -362.99403054 507.25713831 C-364.28820454 504.69587767 -365.57943838 502.13320473 -366.86903054 499.56963831 C-367.23383522 498.84840784 -367.59863991 498.12717737 -367.97449929 497.38409144 C-372.99403054 487.39066104 -372.99403054 487.39066104 -372.99403054 483.25713831 C-373.65403054 483.25713831 -374.31403054 483.25713831 -374.99403054 483.25713831 C-379.74914338 461.92583551 -383.32122776 440.71511103 -385.53699929 418.96026331 C-385.58317268 415.46293955 -385.58317268 415.46293955 -386.99403054 414.25713831 C-387.27596788 411.80777147 -387.49642356 409.37873461 -387.67762429 406.92120081 C-387.73805413 406.13675593 -387.79848397 405.35231104 -387.86074501 404.5440951 C-387.98994343 402.84754458 -388.11671897 401.15080819 -388.24134499 399.45391566 C-388.42004976 397.03738672 -388.60954174 394.62192921 -388.80067116 392.20635706 C-391.48855614 357.10753163 -392.37306273 321.99027405 -392.31148201 286.79903895 C-392.30644165 283.63891025 -392.30498341 280.47879411 -392.30402809 277.31866175 C-392.28230014 243.54595778 -391.51322013 209.94538955 -388.99403054 176.25713831 C-388.86973671 174.54904993 -388.86973671 174.54904993 -388.7429319 172.80645472 C-388.48646538 169.29993619 -388.22230103 165.79409383 -387.95496804 162.28838831 C-387.87429085 161.19844568 -387.79361367 160.10850306 -387.71049172 158.98553187 C-387.63180855 157.98783777 -387.55312538 156.99014368 -387.47205788 155.96221644 C-387.40384835 155.07602625 -387.33563881 154.18983607 -387.26536232 153.27679163 C-386.99403054 151.25713831 -386.99403054 151.25713831 -385.99403054 150.25713831 C-385.60751698 147.6732378 -385.27652589 145.10166414 -384.97840554 142.50713831 C-384.7804587 140.86115863 -384.58194934 139.21524652 -384.38294655 137.56939417 C-384.27910652 136.70184504 -384.1752665 135.8342959 -384.0682798 134.9404574 C-378.49674883 88.83335114 -378.49674883 88.83335114 -369.99403054 72.25713831 C-369.34615959 70.94173368 -368.70041739 69.62527898 -368.05653054 68.30791956 C-366.401341 64.94087858 -364.70837002 61.59452109 -362.99403054 58.25713831 C-362.33403054 58.25713831 -361.67403054 58.25713831 -360.99403054 58.25713831 C-360.71559304 57.67190394 -360.43715554 57.08666956 -360.15028054 56.48370081 C-350.14955586 37.22554857 -329.7306452 25.21397017 -309.99403054 18.25713831 C-309.28287087 17.99860071 -308.5717112 17.74006312 -307.83900124 17.47369105 C-302.31258152 15.53141948 -296.83128586 14.27525094 -291.05653054 13.31963831 C-290.06798073 13.15488001 -289.07943093 12.99012171 -288.06092507 12.82037073 C-266.76396871 9.4932129 -245.04596469 7.78699574 -223.53553444 6.50982386 C-221.00391395 6.41063359 -221.00391395 6.41063359 -218.99403054 5.25713831 C-186.55823298 1.95159825 -153.32554329 2.06296837 -120.74012429 1.17510706 C-119.9628668 1.1537749 -119.18560932 1.13244274 -118.38479859 1.11046416 C-78.92529886 0.03535444 -39.47170889 -0.05020535 0 0 Z " fill="#ED1D24" transform="translate(391.9940305352211,-0.25713831186294556)"/>
<path d="M0 0 C17.88847133 8.94423567 35.30449723 19.01034298 52.50952148 29.2019043 C58.32252819 32.63232529 64.2090967 35.91634883 70.11962891 39.17504883 C78.09928184 43.58494764 85.97348243 48.17233803 93.85449219 52.75537109 C98.56041011 55.48531756 103.28975706 58.17417382 108.01660156 60.86767578 C110.31228971 62.17828652 112.60541033 63.49333305 114.8984375 64.80859375 C124.12213738 70.09571225 133.36716608 75.33741859 142.66943359 80.48510742 C151.42841742 85.33582913 160.11761275 90.30199434 168.75 95.375 C173.72694899 98.29092218 178.76148855 101.09050895 183.8125 103.875 C191.99596068 108.38917525 200.02416911 113.12980238 208 118 C205.77519237 120.41959425 203.53385756 121.99021285 200.67578125 123.6015625 C199.82032715 124.0869751 198.96487305 124.5723877 198.08349609 125.07250977 C197.16906738 125.58483154 196.25463867 126.09715332 195.3125 126.625 C194.36713379 127.15988037 193.42176758 127.69476074 192.44775391 128.24584961 C189.63477125 129.835848 186.81812001 131.41912839 184 133 C183.2589502 133.41620605 182.51790039 133.83241211 181.75439453 134.26123047 C176.48696941 137.21964732 176.48696941 137.21964732 173.96020508 138.63525391 C168.77970761 141.54385541 163.63726504 144.51582691 158.5 147.5 C149.39257226 152.78969076 140.22545907 157.96656113 131.02929688 163.10009766 C123.65783548 167.21613287 116.32333511 171.37888214 109.0625 175.6875 C99.74587934 181.21167954 90.28185683 186.46835204 80.82421875 191.74609375 C71.8616566 196.74782311 62.96439706 201.85891297 54.08666992 207.00952148 C44.06753362 212.82147509 33.99870429 218.53637965 23.88427734 224.18066406 C21.75533607 225.3689328 19.62735304 226.55889035 17.5 227.75 C16.82928467 228.12519775 16.15856934 228.50039551 15.4675293 228.88696289 C11.96000711 230.85986153 8.51461893 232.89045177 5.125 235.0625 C2 237 2 237 0 237 C0 158.79 0 80.58 0 0 Z " fill="#FEFEFE" transform="translate(319,164)"/>
<path d="M0 0 C0.99 0.33 1.98 0.66 3 1 C2.67 1.66 2.34 2.32 2 3 C1.90381856 6.04890806 1.86992782 9.07493091 1.87974548 12.12405396 C1.87889106 13.08131406 1.87803663 14.03857416 1.87715632 15.02484214 C1.87550104 18.25241994 1.88102369 21.47994647 1.88647461 24.70751953 C1.8867565 27.01320393 1.88659872 29.31888841 1.8860321 31.62457275 C1.88574419 37.90112146 1.89163995 44.17765121 1.89860606 50.4541955 C1.90484061 57.00721294 1.90544348 63.56023078 1.90663147 70.11325073 C1.90922378 81.1176588 1.91564439 92.12206019 1.92456055 103.12646484 C1.93373578 114.46240199 1.94081607 125.79833724 1.94506836 137.13427734 C1.94533108 137.83270886 1.94559381 138.53114038 1.94586449 139.25073649 C1.9471695 142.75446788 1.94843322 146.25819929 1.94967639 149.7619307 C1.96004765 178.84129168 1.97773899 207.92064575 2 237 C1.34 237 0.68 237 0 237 C0 158.79 0 80.58 0 0 Z " fill="#FCEBEC" transform="translate(319,164)"/>
<path d="" fill="#000000" transform="translate(0,0)"/>
<path d="" fill="#FF0000" transform="translate(0,0)"/>
<path d="" fill="#FF0000" transform="translate(0,0)"/>
<path d="" fill="#FF0000" transform="translate(0,0)"/>
</svg>
